<mxfile host="app.diagrams.net" agent="Mozilla/5.0 (Windows NT 10.0; Win64; x64) AppleWebKit/537.36 (KHTML, like Gecko) Chrome/127.0.0.0 Safari/537.36" version="24.7.6" pages="6">
  <diagram name="Ventas - Actual" id="HQO-HxVfIT80cwZHHfyy">
    <mxGraphModel dx="1100" dy="543" grid="1" gridSize="10" guides="1" tooltips="1" connect="1" arrows="1" fold="1" page="1" pageScale="1" pageWidth="827" pageHeight="1169" math="0" shadow="0">
      <root>
        <mxCell id="0" />
        <mxCell id="1" parent="0" />
        <mxCell id="BfcmnRNueXPA_Z_HVBU1-42" value="Flujo de ventas de propiedades - Actual" style="shape=table;childLayout=tableLayout;startSize=40;collapsible=0;recursiveResize=0;expand=0;fontSize=16;fontStyle=1" vertex="1" parent="1">
          <mxGeometry x="44" y="40" width="740" height="370" as="geometry" />
        </mxCell>
        <mxCell id="BfcmnRNueXPA_Z_HVBU1-43" value="Cliente" style="shape=tableRow;horizontal=0;swimlaneHead=0;swimlaneBody=0;top=0;left=0;strokeColor=inherit;bottom=0;right=0;dropTarget=0;fontStyle=1;fillColor=none;points=[[0,0.5],[1,0.5]];portConstraint=eastwest;startSize=40;collapsible=0;recursiveResize=0;expand=0;fontSize=16;" vertex="1" parent="BfcmnRNueXPA_Z_HVBU1-42">
          <mxGeometry y="40" width="740" height="180" as="geometry" />
        </mxCell>
        <mxCell id="BfcmnRNueXPA_Z_HVBU1-44" value="Estado inicial" style="swimlane;swimlaneHead=0;swimlaneBody=0;fontStyle=1;strokeColor=inherit;connectable=0;fillColor=none;startSize=40;collapsible=0;recursiveResize=0;expand=0;fontSize=16;" vertex="1" parent="BfcmnRNueXPA_Z_HVBU1-43">
          <mxGeometry x="40" width="206" height="180" as="geometry">
            <mxRectangle width="206" height="180" as="alternateBounds" />
          </mxGeometry>
        </mxCell>
        <mxCell id="BfcmnRNueXPA_Z_HVBU1-45" value="" style="points=[[0.145,0.145,0],[0.5,0,0],[0.855,0.145,0],[1,0.5,0],[0.855,0.855,0],[0.5,1,0],[0.145,0.855,0],[0,0.5,0]];shape=mxgraph.bpmn.event;html=1;verticalLabelPosition=bottom;labelBackgroundColor=#ffffff;verticalAlign=top;align=center;perimeter=ellipsePerimeter;outlineConnect=0;aspect=fixed;outline=standard;symbol=general;" vertex="1" parent="BfcmnRNueXPA_Z_HVBU1-44">
          <mxGeometry x="10" y="50" width="30" height="30" as="geometry" />
        </mxCell>
        <mxCell id="BfcmnRNueXPA_Z_HVBU1-46" value="Solicita informacion&amp;nbsp;" style="points=[[0.25,0,0],[0.5,0,0],[0.75,0,0],[1,0.25,0],[1,0.5,0],[1,0.75,0],[0.75,1,0],[0.5,1,0],[0.25,1,0],[0,0.75,0],[0,0.5,0],[0,0.25,0]];shape=mxgraph.bpmn.task;whiteSpace=wrap;rectStyle=rounded;size=10;html=1;container=1;expand=0;collapsible=0;taskMarker=abstract;" vertex="1" parent="BfcmnRNueXPA_Z_HVBU1-44">
          <mxGeometry x="10" y="110" width="72" height="30" as="geometry" />
        </mxCell>
        <mxCell id="BfcmnRNueXPA_Z_HVBU1-47" style="edgeStyle=orthogonalEdgeStyle;rounded=0;orthogonalLoop=1;jettySize=auto;html=1;entryX=0.5;entryY=0;entryDx=0;entryDy=0;entryPerimeter=0;" edge="1" parent="BfcmnRNueXPA_Z_HVBU1-44" source="BfcmnRNueXPA_Z_HVBU1-45" target="BfcmnRNueXPA_Z_HVBU1-46">
          <mxGeometry relative="1" as="geometry">
            <Array as="points">
              <mxPoint x="46" y="65" />
            </Array>
          </mxGeometry>
        </mxCell>
        <mxCell id="BfcmnRNueXPA_Z_HVBU1-48" value="Estado Intermedio" style="swimlane;swimlaneHead=0;swimlaneBody=0;fontStyle=1;strokeColor=inherit;connectable=0;fillColor=none;startSize=40;collapsible=0;recursiveResize=0;expand=0;fontSize=16;" vertex="1" parent="BfcmnRNueXPA_Z_HVBU1-43">
          <mxGeometry x="246" width="324" height="180" as="geometry">
            <mxRectangle width="324" height="180" as="alternateBounds" />
          </mxGeometry>
        </mxCell>
        <mxCell id="BfcmnRNueXPA_Z_HVBU1-50" value="" style="points=[[0.25,0.25,0],[0.5,0,0],[0.75,0.25,0],[1,0.5,0],[0.75,0.75,0],[0.5,1,0],[0.25,0.75,0],[0,0.5,0]];shape=mxgraph.bpmn.gateway2;html=1;verticalLabelPosition=bottom;labelBackgroundColor=#ffffff;verticalAlign=top;align=center;perimeter=rhombusPerimeter;outlineConnect=0;outline=none;symbol=none;" vertex="1" parent="BfcmnRNueXPA_Z_HVBU1-48">
          <mxGeometry x="22" y="90" width="50" height="50" as="geometry" />
        </mxCell>
        <mxCell id="BfcmnRNueXPA_Z_HVBU1-52" value="Interesado?" style="text;html=1;align=center;verticalAlign=middle;whiteSpace=wrap;rounded=0;" vertex="1" parent="BfcmnRNueXPA_Z_HVBU1-48">
          <mxGeometry x="17" y="66.75" width="60" height="30" as="geometry" />
        </mxCell>
        <mxCell id="BfcmnRNueXPA_Z_HVBU1-53" value="Si" style="text;html=1;align=center;verticalAlign=middle;whiteSpace=wrap;rounded=0;" vertex="1" parent="BfcmnRNueXPA_Z_HVBU1-48">
          <mxGeometry x="44" y="90" width="60" height="30" as="geometry" />
        </mxCell>
        <mxCell id="BfcmnRNueXPA_Z_HVBU1-54" value="No" style="text;html=1;align=center;verticalAlign=middle;whiteSpace=wrap;rounded=0;" vertex="1" parent="BfcmnRNueXPA_Z_HVBU1-48">
          <mxGeometry x="-16" y="90" width="60" height="30" as="geometry" />
        </mxCell>
        <mxCell id="BfcmnRNueXPA_Z_HVBU1-85" value="&lt;font face=&quot;Arial, sans-serif&quot; color=&quot;#444444&quot;&gt;Visita propiedades&lt;/font&gt;" style="points=[[0.25,0,0],[0.5,0,0],[0.75,0,0],[1,0.25,0],[1,0.5,0],[1,0.75,0],[0.75,1,0],[0.5,1,0],[0.25,1,0],[0,0.75,0],[0,0.5,0],[0,0.25,0]];shape=mxgraph.bpmn.task;whiteSpace=wrap;rectStyle=rounded;size=10;html=1;container=1;expand=0;collapsible=0;taskMarker=abstract;" vertex="1" parent="BfcmnRNueXPA_Z_HVBU1-48">
          <mxGeometry x="124" y="60.25" width="86" height="36.5" as="geometry" />
        </mxCell>
        <mxCell id="BfcmnRNueXPA_Z_HVBU1-88" value="" style="points=[[0.25,0.25,0],[0.5,0,0],[0.75,0.25,0],[1,0.5,0],[0.75,0.75,0],[0.5,1,0],[0.25,0.75,0],[0,0.5,0]];shape=mxgraph.bpmn.gateway2;html=1;verticalLabelPosition=bottom;labelBackgroundColor=#ffffff;verticalAlign=top;align=center;perimeter=rhombusPerimeter;outlineConnect=0;outline=none;symbol=none;" vertex="1" parent="BfcmnRNueXPA_Z_HVBU1-48">
          <mxGeometry x="244" y="60.25" width="50" height="50" as="geometry" />
        </mxCell>
        <mxCell id="BfcmnRNueXPA_Z_HVBU1-89" value="Decide comprar?" style="text;html=1;align=center;verticalAlign=middle;whiteSpace=wrap;rounded=0;" vertex="1" parent="BfcmnRNueXPA_Z_HVBU1-48">
          <mxGeometry x="220" y="40" width="104" height="30" as="geometry" />
        </mxCell>
        <mxCell id="BfcmnRNueXPA_Z_HVBU1-90" style="edgeStyle=orthogonalEdgeStyle;rounded=0;orthogonalLoop=1;jettySize=auto;html=1;entryX=0;entryY=0.5;entryDx=0;entryDy=0;entryPerimeter=0;" edge="1" parent="BfcmnRNueXPA_Z_HVBU1-48" source="BfcmnRNueXPA_Z_HVBU1-85" target="BfcmnRNueXPA_Z_HVBU1-88">
          <mxGeometry relative="1" as="geometry" />
        </mxCell>
        <mxCell id="BfcmnRNueXPA_Z_HVBU1-92" value="No" style="text;html=1;align=center;verticalAlign=middle;whiteSpace=wrap;rounded=0;" vertex="1" parent="BfcmnRNueXPA_Z_HVBU1-48">
          <mxGeometry x="274" y="65" width="60" height="30" as="geometry" />
        </mxCell>
        <mxCell id="BfcmnRNueXPA_Z_HVBU1-95" value="&lt;font face=&quot;Arial, sans-serif&quot; color=&quot;#444444&quot;&gt;Firma contraro&lt;/font&gt;" style="points=[[0.25,0,0],[0.5,0,0],[0.75,0,0],[1,0.25,0],[1,0.5,0],[1,0.75,0],[0.75,1,0],[0.5,1,0],[0.25,1,0],[0,0.75,0],[0,0.5,0],[0,0.25,0]];shape=mxgraph.bpmn.task;whiteSpace=wrap;rectStyle=rounded;size=10;html=1;container=1;expand=0;collapsible=0;taskMarker=abstract;" vertex="1" parent="BfcmnRNueXPA_Z_HVBU1-48">
          <mxGeometry x="226" y="140" width="86" height="36.5" as="geometry" />
        </mxCell>
        <mxCell id="BfcmnRNueXPA_Z_HVBU1-96" style="edgeStyle=orthogonalEdgeStyle;rounded=0;orthogonalLoop=1;jettySize=auto;html=1;entryX=0.5;entryY=0;entryDx=0;entryDy=0;entryPerimeter=0;" edge="1" parent="BfcmnRNueXPA_Z_HVBU1-48" source="BfcmnRNueXPA_Z_HVBU1-88" target="BfcmnRNueXPA_Z_HVBU1-95">
          <mxGeometry relative="1" as="geometry" />
        </mxCell>
        <mxCell id="BfcmnRNueXPA_Z_HVBU1-97" value="Si" style="text;html=1;align=center;verticalAlign=middle;whiteSpace=wrap;rounded=0;" vertex="1" parent="BfcmnRNueXPA_Z_HVBU1-48">
          <mxGeometry x="252" y="110" width="60" height="30" as="geometry" />
        </mxCell>
        <mxCell id="BfcmnRNueXPA_Z_HVBU1-55" value="Estado Final" style="swimlane;swimlaneHead=0;swimlaneBody=0;fontStyle=1;strokeColor=inherit;connectable=0;fillColor=none;startSize=40;collapsible=0;recursiveResize=0;expand=0;fontSize=16;" vertex="1" parent="BfcmnRNueXPA_Z_HVBU1-43">
          <mxGeometry x="570" width="170" height="180" as="geometry">
            <mxRectangle width="170" height="180" as="alternateBounds" />
          </mxGeometry>
        </mxCell>
        <mxCell id="BfcmnRNueXPA_Z_HVBU1-59" value="" style="points=[[0.145,0.145,0],[0.5,0,0],[0.855,0.145,0],[1,0.5,0],[0.855,0.855,0],[0.5,1,0],[0.145,0.855,0],[0,0.5,0]];shape=mxgraph.bpmn.event;html=1;verticalLabelPosition=bottom;labelBackgroundColor=#ffffff;verticalAlign=top;align=center;perimeter=ellipsePerimeter;outlineConnect=0;aspect=fixed;outline=throwing;symbol=general;" vertex="1" parent="BfcmnRNueXPA_Z_HVBU1-55">
          <mxGeometry x="30" y="48" width="33" height="33" as="geometry" />
        </mxCell>
        <mxCell id="BfcmnRNueXPA_Z_HVBU1-91" style="edgeStyle=orthogonalEdgeStyle;rounded=0;orthogonalLoop=1;jettySize=auto;html=1;entryX=0;entryY=0.5;entryDx=0;entryDy=0;entryPerimeter=0;" edge="1" parent="BfcmnRNueXPA_Z_HVBU1-43" source="BfcmnRNueXPA_Z_HVBU1-88" target="BfcmnRNueXPA_Z_HVBU1-59">
          <mxGeometry relative="1" as="geometry">
            <Array as="points">
              <mxPoint x="580" y="70" />
              <mxPoint x="580" y="64" />
            </Array>
          </mxGeometry>
        </mxCell>
        <mxCell id="BfcmnRNueXPA_Z_HVBU1-61" value="Agente" style="shape=tableRow;horizontal=0;swimlaneHead=0;swimlaneBody=0;top=0;left=0;strokeColor=inherit;bottom=0;right=0;dropTarget=0;fontStyle=1;fillColor=none;points=[[0,0.5],[1,0.5]];portConstraint=eastwest;startSize=40;collapsible=0;recursiveResize=0;expand=0;fontSize=16;" vertex="1" parent="BfcmnRNueXPA_Z_HVBU1-42">
          <mxGeometry y="220" width="740" height="150" as="geometry" />
        </mxCell>
        <mxCell id="BfcmnRNueXPA_Z_HVBU1-62" value="" style="swimlane;swimlaneHead=0;swimlaneBody=0;fontStyle=1;connectable=0;strokeColor=inherit;fillColor=none;startSize=0;collapsible=0;recursiveResize=0;expand=0;fontSize=16;" vertex="1" parent="BfcmnRNueXPA_Z_HVBU1-61">
          <mxGeometry x="40" width="206" height="150" as="geometry">
            <mxRectangle width="206" height="150" as="alternateBounds" />
          </mxGeometry>
        </mxCell>
        <mxCell id="BfcmnRNueXPA_Z_HVBU1-63" style="edgeStyle=orthogonalEdgeStyle;rounded=0;orthogonalLoop=1;jettySize=auto;html=1;" edge="1" parent="BfcmnRNueXPA_Z_HVBU1-62" source="BfcmnRNueXPA_Z_HVBU1-64" target="BfcmnRNueXPA_Z_HVBU1-65">
          <mxGeometry relative="1" as="geometry" />
        </mxCell>
        <mxCell id="BfcmnRNueXPA_Z_HVBU1-64" value="Busca&lt;div&gt;propiedades&lt;/div&gt;" style="points=[[0.25,0,0],[0.5,0,0],[0.75,0,0],[1,0.25,0],[1,0.5,0],[1,0.75,0],[0.75,1,0],[0.5,1,0],[0.25,1,0],[0,0.75,0],[0,0.5,0],[0,0.25,0]];shape=mxgraph.bpmn.task;whiteSpace=wrap;rectStyle=rounded;size=10;html=1;container=1;expand=0;collapsible=0;taskMarker=abstract;" vertex="1" parent="BfcmnRNueXPA_Z_HVBU1-62">
          <mxGeometry x="10" y="30" width="100" height="36.5" as="geometry" />
        </mxCell>
        <mxCell id="BfcmnRNueXPA_Z_HVBU1-65" value="" style="points=[[0.25,0.25,0],[0.5,0,0],[0.75,0.25,0],[1,0.5,0],[0.75,0.75,0],[0.5,1,0],[0.25,0.75,0],[0,0.5,0]];shape=mxgraph.bpmn.gateway2;html=1;verticalLabelPosition=bottom;labelBackgroundColor=#ffffff;verticalAlign=top;align=center;perimeter=rhombusPerimeter;outlineConnect=0;outline=none;symbol=none;" vertex="1" parent="BfcmnRNueXPA_Z_HVBU1-62">
          <mxGeometry x="114" y="87" width="50" height="50" as="geometry" />
        </mxCell>
        <mxCell id="BfcmnRNueXPA_Z_HVBU1-66" value="&lt;font style=&quot;vertical-align: inherit;&quot;&gt;&lt;font style=&quot;vertical-align: inherit;&quot;&gt;Disponible&lt;/font&gt;&lt;/font&gt;" style="text;html=1;align=center;verticalAlign=middle;whiteSpace=wrap;rounded=0;" vertex="1" parent="BfcmnRNueXPA_Z_HVBU1-62">
          <mxGeometry x="50" y="97" width="60" height="30" as="geometry" />
        </mxCell>
        <mxCell id="BfcmnRNueXPA_Z_HVBU1-67" value="Si" style="text;html=1;align=center;verticalAlign=middle;whiteSpace=wrap;rounded=0;" vertex="1" parent="BfcmnRNueXPA_Z_HVBU1-62">
          <mxGeometry x="150" y="87" width="60" height="30" as="geometry" />
        </mxCell>
        <mxCell id="BfcmnRNueXPA_Z_HVBU1-68" value="No" style="text;html=1;align=center;verticalAlign=middle;whiteSpace=wrap;rounded=0;" vertex="1" parent="BfcmnRNueXPA_Z_HVBU1-62">
          <mxGeometry x="150" y="117" width="60" height="30" as="geometry" />
        </mxCell>
        <mxCell id="BfcmnRNueXPA_Z_HVBU1-69" value="" style="swimlane;swimlaneHead=0;swimlaneBody=0;fontStyle=1;connectable=0;strokeColor=inherit;fillColor=none;startSize=0;collapsible=0;recursiveResize=0;expand=0;fontSize=16;" vertex="1" parent="BfcmnRNueXPA_Z_HVBU1-61">
          <mxGeometry x="246" width="324" height="150" as="geometry">
            <mxRectangle width="324" height="150" as="alternateBounds" />
          </mxGeometry>
        </mxCell>
        <mxCell id="BfcmnRNueXPA_Z_HVBU1-70" value="&lt;span style=&quot;color: rgb(68, 68, 68); font-family: Arial, sans-serif;&quot;&gt;Envía opciones al cliente&lt;/span&gt;" style="points=[[0.25,0,0],[0.5,0,0],[0.75,0,0],[1,0.25,0],[1,0.5,0],[1,0.75,0],[0.75,1,0],[0.5,1,0],[0.25,1,0],[0,0.75,0],[0,0.5,0],[0,0.25,0]];shape=mxgraph.bpmn.task;whiteSpace=wrap;rectStyle=rounded;size=10;html=1;container=1;expand=0;collapsible=0;taskMarker=abstract;" vertex="1" parent="BfcmnRNueXPA_Z_HVBU1-69">
          <mxGeometry x="4" y="50.5" width="86" height="36.5" as="geometry" />
        </mxCell>
        <mxCell id="BfcmnRNueXPA_Z_HVBU1-71" value="&lt;span style=&quot;color: rgb(68, 68, 68); font-family: Arial, sans-serif;&quot;&gt;Organiza visita a la propiedad&amp;nbsp;&lt;/span&gt;" style="points=[[0.25,0,0],[0.5,0,0],[0.75,0,0],[1,0.25,0],[1,0.5,0],[1,0.75,0],[0.75,1,0],[0.5,1,0],[0.25,1,0],[0,0.75,0],[0,0.5,0],[0,0.25,0]];shape=mxgraph.bpmn.task;whiteSpace=wrap;rectStyle=rounded;size=10;html=1;container=1;expand=0;collapsible=0;taskMarker=abstract;" vertex="1" parent="BfcmnRNueXPA_Z_HVBU1-69">
          <mxGeometry x="124" y="50.5" width="86" height="36.5" as="geometry" />
        </mxCell>
        <mxCell id="BfcmnRNueXPA_Z_HVBU1-99" value="Ingresa venta" style="points=[[0.25,0,0],[0.5,0,0],[0.75,0,0],[1,0.25,0],[1,0.5,0],[1,0.75,0],[0.75,1,0],[0.5,1,0],[0.25,1,0],[0,0.75,0],[0,0.5,0],[0,0.25,0]];shape=mxgraph.bpmn.task;whiteSpace=wrap;rectStyle=rounded;size=10;html=1;container=1;expand=0;collapsible=0;taskMarker=abstract;" vertex="1" parent="BfcmnRNueXPA_Z_HVBU1-69">
          <mxGeometry x="224" y="56.75" width="86" height="36.5" as="geometry" />
        </mxCell>
        <mxCell id="BfcmnRNueXPA_Z_HVBU1-72" value="" style="swimlane;swimlaneHead=0;swimlaneBody=0;fontStyle=1;connectable=0;strokeColor=inherit;fillColor=none;startSize=0;collapsible=0;recursiveResize=0;expand=0;fontSize=16;" vertex="1" parent="BfcmnRNueXPA_Z_HVBU1-61">
          <mxGeometry x="570" width="170" height="150" as="geometry">
            <mxRectangle width="170" height="150" as="alternateBounds" />
          </mxGeometry>
        </mxCell>
        <mxCell id="BfcmnRNueXPA_Z_HVBU1-74" value="" style="points=[[0.145,0.145,0],[0.5,0,0],[0.855,0.145,0],[1,0.5,0],[0.855,0.855,0],[0.5,1,0],[0.145,0.855,0],[0,0.5,0]];shape=mxgraph.bpmn.event;html=1;verticalLabelPosition=bottom;labelBackgroundColor=#ffffff;verticalAlign=top;align=center;perimeter=ellipsePerimeter;outlineConnect=0;aspect=fixed;outline=throwing;symbol=general;" vertex="1" parent="BfcmnRNueXPA_Z_HVBU1-72">
          <mxGeometry x="30" y="95.5" width="33" height="33" as="geometry" />
        </mxCell>
        <mxCell id="BfcmnRNueXPA_Z_HVBU1-57" value="" style="points=[[0.145,0.145,0],[0.5,0,0],[0.855,0.145,0],[1,0.5,0],[0.855,0.855,0],[0.5,1,0],[0.145,0.855,0],[0,0.5,0]];shape=mxgraph.bpmn.event;html=1;verticalLabelPosition=bottom;labelBackgroundColor=#ffffff;verticalAlign=top;align=center;perimeter=ellipsePerimeter;outlineConnect=0;aspect=fixed;outline=end;symbol=terminate;" vertex="1" parent="BfcmnRNueXPA_Z_HVBU1-72">
          <mxGeometry x="50" y="30" width="33" height="33" as="geometry" />
        </mxCell>
        <mxCell id="BfcmnRNueXPA_Z_HVBU1-77" style="edgeStyle=orthogonalEdgeStyle;rounded=0;orthogonalLoop=1;jettySize=auto;html=1;entryX=0;entryY=0.5;entryDx=0;entryDy=0;entryPerimeter=0;" edge="1" parent="BfcmnRNueXPA_Z_HVBU1-61" source="BfcmnRNueXPA_Z_HVBU1-65" target="BfcmnRNueXPA_Z_HVBU1-74">
          <mxGeometry relative="1" as="geometry">
            <Array as="points">
              <mxPoint x="179" y="140" />
              <mxPoint x="540" y="140" />
              <mxPoint x="540" y="113" />
              <mxPoint x="580" y="113" />
            </Array>
            <mxPoint x="530" y="70" as="targetPoint" />
          </mxGeometry>
        </mxCell>
        <mxCell id="BfcmnRNueXPA_Z_HVBU1-78" style="edgeStyle=orthogonalEdgeStyle;rounded=0;orthogonalLoop=1;jettySize=auto;html=1;" edge="1" parent="BfcmnRNueXPA_Z_HVBU1-61" source="BfcmnRNueXPA_Z_HVBU1-65" target="BfcmnRNueXPA_Z_HVBU1-70">
          <mxGeometry relative="1" as="geometry">
            <Array as="points">
              <mxPoint x="290" y="112" />
            </Array>
          </mxGeometry>
        </mxCell>
        <mxCell id="BfcmnRNueXPA_Z_HVBU1-100" style="edgeStyle=orthogonalEdgeStyle;rounded=0;orthogonalLoop=1;jettySize=auto;html=1;" edge="1" parent="BfcmnRNueXPA_Z_HVBU1-61" source="BfcmnRNueXPA_Z_HVBU1-99" target="BfcmnRNueXPA_Z_HVBU1-57">
          <mxGeometry relative="1" as="geometry" />
        </mxCell>
        <mxCell id="BfcmnRNueXPA_Z_HVBU1-79" style="edgeStyle=orthogonalEdgeStyle;rounded=0;orthogonalLoop=1;jettySize=auto;html=1;entryX=0.5;entryY=0;entryDx=0;entryDy=0;entryPerimeter=0;" edge="1" parent="BfcmnRNueXPA_Z_HVBU1-42" source="BfcmnRNueXPA_Z_HVBU1-46" target="BfcmnRNueXPA_Z_HVBU1-64">
          <mxGeometry relative="1" as="geometry" />
        </mxCell>
        <mxCell id="BfcmnRNueXPA_Z_HVBU1-80" style="edgeStyle=orthogonalEdgeStyle;rounded=0;orthogonalLoop=1;jettySize=auto;html=1;entryX=0.5;entryY=1;entryDx=0;entryDy=0;entryPerimeter=0;" edge="1" parent="BfcmnRNueXPA_Z_HVBU1-42" source="BfcmnRNueXPA_Z_HVBU1-70" target="BfcmnRNueXPA_Z_HVBU1-50">
          <mxGeometry relative="1" as="geometry">
            <mxPoint x="300" y="140" as="targetPoint" />
          </mxGeometry>
        </mxCell>
        <mxCell id="BfcmnRNueXPA_Z_HVBU1-83" style="edgeStyle=orthogonalEdgeStyle;rounded=0;orthogonalLoop=1;jettySize=auto;html=1;entryX=0.96;entryY=-0.055;entryDx=0;entryDy=0;entryPerimeter=0;" edge="1" parent="BfcmnRNueXPA_Z_HVBU1-42" source="BfcmnRNueXPA_Z_HVBU1-50" target="BfcmnRNueXPA_Z_HVBU1-64">
          <mxGeometry relative="1" as="geometry" />
        </mxCell>
        <mxCell id="BfcmnRNueXPA_Z_HVBU1-84" style="edgeStyle=orthogonalEdgeStyle;rounded=0;orthogonalLoop=1;jettySize=auto;html=1;entryX=0.25;entryY=0;entryDx=0;entryDy=0;entryPerimeter=0;" edge="1" parent="BfcmnRNueXPA_Z_HVBU1-42" source="BfcmnRNueXPA_Z_HVBU1-50" target="BfcmnRNueXPA_Z_HVBU1-71">
          <mxGeometry relative="1" as="geometry" />
        </mxCell>
        <mxCell id="BfcmnRNueXPA_Z_HVBU1-86" style="edgeStyle=orthogonalEdgeStyle;rounded=0;orthogonalLoop=1;jettySize=auto;html=1;entryX=0.5;entryY=1;entryDx=0;entryDy=0;entryPerimeter=0;" edge="1" parent="BfcmnRNueXPA_Z_HVBU1-42" source="BfcmnRNueXPA_Z_HVBU1-71" target="BfcmnRNueXPA_Z_HVBU1-85">
          <mxGeometry relative="1" as="geometry" />
        </mxCell>
        <mxCell id="BfcmnRNueXPA_Z_HVBU1-98" style="edgeStyle=orthogonalEdgeStyle;rounded=0;orthogonalLoop=1;jettySize=auto;html=1;entryX=0.5;entryY=0;entryDx=0;entryDy=0;entryPerimeter=0;" edge="1" parent="BfcmnRNueXPA_Z_HVBU1-42" source="BfcmnRNueXPA_Z_HVBU1-95" target="BfcmnRNueXPA_Z_HVBU1-99">
          <mxGeometry relative="1" as="geometry">
            <mxPoint x="515" y="280" as="targetPoint" />
          </mxGeometry>
        </mxCell>
      </root>
    </mxGraphModel>
  </diagram>
  <diagram id="7l67NZjVfr8j-dZ0Y6zJ" name="Página-3">
    <mxGraphModel dx="1100" dy="543" grid="1" gridSize="10" guides="1" tooltips="1" connect="1" arrows="1" fold="1" page="1" pageScale="1" pageWidth="827" pageHeight="1169" math="0" shadow="0">
      <root>
        <mxCell id="0" />
        <mxCell id="1" parent="0" />
        <mxCell id="NyDnFR12pi94oh-g-XMe-1" value="Flujo de ventas de propiedades - Objetivo" style="shape=table;childLayout=tableLayout;startSize=40;collapsible=0;recursiveResize=0;expand=0;fontSize=16;fontStyle=1" vertex="1" parent="1">
          <mxGeometry x="20" y="20" width="740" height="370" as="geometry" />
        </mxCell>
        <mxCell id="NyDnFR12pi94oh-g-XMe-2" value="Cliente" style="shape=tableRow;horizontal=0;swimlaneHead=0;swimlaneBody=0;top=0;left=0;strokeColor=inherit;bottom=0;right=0;dropTarget=0;fontStyle=1;fillColor=none;points=[[0,0.5],[1,0.5]];portConstraint=eastwest;startSize=40;collapsible=0;recursiveResize=0;expand=0;fontSize=16;" vertex="1" parent="NyDnFR12pi94oh-g-XMe-1">
          <mxGeometry y="40" width="740" height="180" as="geometry" />
        </mxCell>
        <mxCell id="NyDnFR12pi94oh-g-XMe-3" value="Estado inicial" style="swimlane;swimlaneHead=0;swimlaneBody=0;fontStyle=1;strokeColor=inherit;connectable=0;fillColor=none;startSize=40;collapsible=0;recursiveResize=0;expand=0;fontSize=16;" vertex="1" parent="NyDnFR12pi94oh-g-XMe-2">
          <mxGeometry x="40" width="206" height="180" as="geometry">
            <mxRectangle width="206" height="180" as="alternateBounds" />
          </mxGeometry>
        </mxCell>
        <mxCell id="NyDnFR12pi94oh-g-XMe-4" value="" style="points=[[0.145,0.145,0],[0.5,0,0],[0.855,0.145,0],[1,0.5,0],[0.855,0.855,0],[0.5,1,0],[0.145,0.855,0],[0,0.5,0]];shape=mxgraph.bpmn.event;html=1;verticalLabelPosition=bottom;labelBackgroundColor=#ffffff;verticalAlign=top;align=center;perimeter=ellipsePerimeter;outlineConnect=0;aspect=fixed;outline=standard;symbol=general;" vertex="1" parent="NyDnFR12pi94oh-g-XMe-3">
          <mxGeometry x="10" y="50" width="30" height="30" as="geometry" />
        </mxCell>
        <mxCell id="NyDnFR12pi94oh-g-XMe-5" value="Solicita informacion&amp;nbsp;" style="points=[[0.25,0,0],[0.5,0,0],[0.75,0,0],[1,0.25,0],[1,0.5,0],[1,0.75,0],[0.75,1,0],[0.5,1,0],[0.25,1,0],[0,0.75,0],[0,0.5,0],[0,0.25,0]];shape=mxgraph.bpmn.task;whiteSpace=wrap;rectStyle=rounded;size=10;html=1;container=1;expand=0;collapsible=0;taskMarker=abstract;" vertex="1" parent="NyDnFR12pi94oh-g-XMe-3">
          <mxGeometry x="10" y="110" width="72" height="30" as="geometry" />
        </mxCell>
        <mxCell id="NyDnFR12pi94oh-g-XMe-6" style="edgeStyle=orthogonalEdgeStyle;rounded=0;orthogonalLoop=1;jettySize=auto;html=1;entryX=0.5;entryY=0;entryDx=0;entryDy=0;entryPerimeter=0;" edge="1" parent="NyDnFR12pi94oh-g-XMe-3" source="NyDnFR12pi94oh-g-XMe-4" target="NyDnFR12pi94oh-g-XMe-5">
          <mxGeometry relative="1" as="geometry">
            <Array as="points">
              <mxPoint x="46" y="65" />
            </Array>
          </mxGeometry>
        </mxCell>
        <mxCell id="NyDnFR12pi94oh-g-XMe-7" value="Estado Intermedio" style="swimlane;swimlaneHead=0;swimlaneBody=0;fontStyle=1;strokeColor=inherit;connectable=0;fillColor=none;startSize=40;collapsible=0;recursiveResize=0;expand=0;fontSize=16;" vertex="1" parent="NyDnFR12pi94oh-g-XMe-2">
          <mxGeometry x="246" width="324" height="180" as="geometry">
            <mxRectangle width="324" height="180" as="alternateBounds" />
          </mxGeometry>
        </mxCell>
        <mxCell id="NyDnFR12pi94oh-g-XMe-8" value="" style="points=[[0.25,0.25,0],[0.5,0,0],[0.75,0.25,0],[1,0.5,0],[0.75,0.75,0],[0.5,1,0],[0.25,0.75,0],[0,0.5,0]];shape=mxgraph.bpmn.gateway2;html=1;verticalLabelPosition=bottom;labelBackgroundColor=#ffffff;verticalAlign=top;align=center;perimeter=rhombusPerimeter;outlineConnect=0;outline=none;symbol=none;" vertex="1" parent="NyDnFR12pi94oh-g-XMe-7">
          <mxGeometry x="22" y="90" width="50" height="50" as="geometry" />
        </mxCell>
        <mxCell id="NyDnFR12pi94oh-g-XMe-9" value="Interesado?" style="text;html=1;align=center;verticalAlign=middle;whiteSpace=wrap;rounded=0;" vertex="1" parent="NyDnFR12pi94oh-g-XMe-7">
          <mxGeometry x="17" y="66.75" width="60" height="30" as="geometry" />
        </mxCell>
        <mxCell id="NyDnFR12pi94oh-g-XMe-10" value="Si" style="text;html=1;align=center;verticalAlign=middle;whiteSpace=wrap;rounded=0;" vertex="1" parent="NyDnFR12pi94oh-g-XMe-7">
          <mxGeometry x="44" y="90" width="60" height="30" as="geometry" />
        </mxCell>
        <mxCell id="NyDnFR12pi94oh-g-XMe-11" value="No" style="text;html=1;align=center;verticalAlign=middle;whiteSpace=wrap;rounded=0;" vertex="1" parent="NyDnFR12pi94oh-g-XMe-7">
          <mxGeometry x="-16" y="90" width="60" height="30" as="geometry" />
        </mxCell>
        <mxCell id="NyDnFR12pi94oh-g-XMe-12" value="&lt;font face=&quot;Arial, sans-serif&quot; color=&quot;#444444&quot;&gt;Visita propiedades&lt;/font&gt;" style="points=[[0.25,0,0],[0.5,0,0],[0.75,0,0],[1,0.25,0],[1,0.5,0],[1,0.75,0],[0.75,1,0],[0.5,1,0],[0.25,1,0],[0,0.75,0],[0,0.5,0],[0,0.25,0]];shape=mxgraph.bpmn.task;whiteSpace=wrap;rectStyle=rounded;size=10;html=1;container=1;expand=0;collapsible=0;taskMarker=abstract;" vertex="1" parent="NyDnFR12pi94oh-g-XMe-7">
          <mxGeometry x="124" y="60.25" width="86" height="36.5" as="geometry" />
        </mxCell>
        <mxCell id="NyDnFR12pi94oh-g-XMe-13" value="" style="points=[[0.25,0.25,0],[0.5,0,0],[0.75,0.25,0],[1,0.5,0],[0.75,0.75,0],[0.5,1,0],[0.25,0.75,0],[0,0.5,0]];shape=mxgraph.bpmn.gateway2;html=1;verticalLabelPosition=bottom;labelBackgroundColor=#ffffff;verticalAlign=top;align=center;perimeter=rhombusPerimeter;outlineConnect=0;outline=none;symbol=none;" vertex="1" parent="NyDnFR12pi94oh-g-XMe-7">
          <mxGeometry x="244" y="60.25" width="50" height="50" as="geometry" />
        </mxCell>
        <mxCell id="NyDnFR12pi94oh-g-XMe-14" value="Decide comprar?" style="text;html=1;align=center;verticalAlign=middle;whiteSpace=wrap;rounded=0;" vertex="1" parent="NyDnFR12pi94oh-g-XMe-7">
          <mxGeometry x="220" y="40" width="104" height="30" as="geometry" />
        </mxCell>
        <mxCell id="NyDnFR12pi94oh-g-XMe-15" style="edgeStyle=orthogonalEdgeStyle;rounded=0;orthogonalLoop=1;jettySize=auto;html=1;entryX=0;entryY=0.5;entryDx=0;entryDy=0;entryPerimeter=0;" edge="1" parent="NyDnFR12pi94oh-g-XMe-7" source="NyDnFR12pi94oh-g-XMe-12" target="NyDnFR12pi94oh-g-XMe-13">
          <mxGeometry relative="1" as="geometry" />
        </mxCell>
        <mxCell id="NyDnFR12pi94oh-g-XMe-16" value="No" style="text;html=1;align=center;verticalAlign=middle;whiteSpace=wrap;rounded=0;" vertex="1" parent="NyDnFR12pi94oh-g-XMe-7">
          <mxGeometry x="274" y="65" width="60" height="30" as="geometry" />
        </mxCell>
        <mxCell id="NyDnFR12pi94oh-g-XMe-17" value="&lt;font face=&quot;Arial, sans-serif&quot; color=&quot;#444444&quot;&gt;Firma contraro&lt;/font&gt;" style="points=[[0.25,0,0],[0.5,0,0],[0.75,0,0],[1,0.25,0],[1,0.5,0],[1,0.75,0],[0.75,1,0],[0.5,1,0],[0.25,1,0],[0,0.75,0],[0,0.5,0],[0,0.25,0]];shape=mxgraph.bpmn.task;whiteSpace=wrap;rectStyle=rounded;size=10;html=1;container=1;expand=0;collapsible=0;taskMarker=abstract;" vertex="1" parent="NyDnFR12pi94oh-g-XMe-7">
          <mxGeometry x="226" y="140" width="86" height="36.5" as="geometry" />
        </mxCell>
        <mxCell id="NyDnFR12pi94oh-g-XMe-18" style="edgeStyle=orthogonalEdgeStyle;rounded=0;orthogonalLoop=1;jettySize=auto;html=1;entryX=0.5;entryY=0;entryDx=0;entryDy=0;entryPerimeter=0;" edge="1" parent="NyDnFR12pi94oh-g-XMe-7" source="NyDnFR12pi94oh-g-XMe-13" target="NyDnFR12pi94oh-g-XMe-17">
          <mxGeometry relative="1" as="geometry" />
        </mxCell>
        <mxCell id="NyDnFR12pi94oh-g-XMe-19" value="Si" style="text;html=1;align=center;verticalAlign=middle;whiteSpace=wrap;rounded=0;" vertex="1" parent="NyDnFR12pi94oh-g-XMe-7">
          <mxGeometry x="252" y="110" width="60" height="30" as="geometry" />
        </mxCell>
        <mxCell id="NyDnFR12pi94oh-g-XMe-20" value="Estado Final" style="swimlane;swimlaneHead=0;swimlaneBody=0;fontStyle=1;strokeColor=inherit;connectable=0;fillColor=none;startSize=40;collapsible=0;recursiveResize=0;expand=0;fontSize=16;" vertex="1" parent="NyDnFR12pi94oh-g-XMe-2">
          <mxGeometry x="570" width="170" height="180" as="geometry">
            <mxRectangle width="170" height="180" as="alternateBounds" />
          </mxGeometry>
        </mxCell>
        <mxCell id="NyDnFR12pi94oh-g-XMe-21" value="" style="points=[[0.145,0.145,0],[0.5,0,0],[0.855,0.145,0],[1,0.5,0],[0.855,0.855,0],[0.5,1,0],[0.145,0.855,0],[0,0.5,0]];shape=mxgraph.bpmn.event;html=1;verticalLabelPosition=bottom;labelBackgroundColor=#ffffff;verticalAlign=top;align=center;perimeter=ellipsePerimeter;outlineConnect=0;aspect=fixed;outline=throwing;symbol=general;" vertex="1" parent="NyDnFR12pi94oh-g-XMe-20">
          <mxGeometry x="30" y="48" width="33" height="33" as="geometry" />
        </mxCell>
        <mxCell id="NyDnFR12pi94oh-g-XMe-22" style="edgeStyle=orthogonalEdgeStyle;rounded=0;orthogonalLoop=1;jettySize=auto;html=1;entryX=0;entryY=0.5;entryDx=0;entryDy=0;entryPerimeter=0;" edge="1" parent="NyDnFR12pi94oh-g-XMe-2" source="NyDnFR12pi94oh-g-XMe-13" target="NyDnFR12pi94oh-g-XMe-21">
          <mxGeometry relative="1" as="geometry">
            <Array as="points">
              <mxPoint x="580" y="70" />
              <mxPoint x="580" y="64" />
            </Array>
          </mxGeometry>
        </mxCell>
        <mxCell id="NyDnFR12pi94oh-g-XMe-23" value="Sistema" style="shape=tableRow;horizontal=0;swimlaneHead=0;swimlaneBody=0;top=0;left=0;strokeColor=inherit;bottom=0;right=0;dropTarget=0;fontStyle=1;fillColor=none;points=[[0,0.5],[1,0.5]];portConstraint=eastwest;startSize=40;collapsible=0;recursiveResize=0;expand=0;fontSize=16;" vertex="1" parent="NyDnFR12pi94oh-g-XMe-1">
          <mxGeometry y="220" width="740" height="150" as="geometry" />
        </mxCell>
        <mxCell id="NyDnFR12pi94oh-g-XMe-24" value="" style="swimlane;swimlaneHead=0;swimlaneBody=0;fontStyle=1;connectable=0;strokeColor=inherit;fillColor=none;startSize=0;collapsible=0;recursiveResize=0;expand=0;fontSize=16;" vertex="1" parent="NyDnFR12pi94oh-g-XMe-23">
          <mxGeometry x="40" width="206" height="150" as="geometry">
            <mxRectangle width="206" height="150" as="alternateBounds" />
          </mxGeometry>
        </mxCell>
        <mxCell id="NyDnFR12pi94oh-g-XMe-25" style="edgeStyle=orthogonalEdgeStyle;rounded=0;orthogonalLoop=1;jettySize=auto;html=1;" edge="1" parent="NyDnFR12pi94oh-g-XMe-24" source="NyDnFR12pi94oh-g-XMe-26" target="NyDnFR12pi94oh-g-XMe-27">
          <mxGeometry relative="1" as="geometry" />
        </mxCell>
        <mxCell id="NyDnFR12pi94oh-g-XMe-26" value="Busca&lt;div&gt;propiedades&lt;/div&gt;" style="points=[[0.25,0,0],[0.5,0,0],[0.75,0,0],[1,0.25,0],[1,0.5,0],[1,0.75,0],[0.75,1,0],[0.5,1,0],[0.25,1,0],[0,0.75,0],[0,0.5,0],[0,0.25,0]];shape=mxgraph.bpmn.task;whiteSpace=wrap;rectStyle=rounded;size=10;html=1;container=1;expand=0;collapsible=0;taskMarker=abstract;" vertex="1" parent="NyDnFR12pi94oh-g-XMe-24">
          <mxGeometry x="10" y="30" width="100" height="36.5" as="geometry" />
        </mxCell>
        <mxCell id="NyDnFR12pi94oh-g-XMe-27" value="" style="points=[[0.25,0.25,0],[0.5,0,0],[0.75,0.25,0],[1,0.5,0],[0.75,0.75,0],[0.5,1,0],[0.25,0.75,0],[0,0.5,0]];shape=mxgraph.bpmn.gateway2;html=1;verticalLabelPosition=bottom;labelBackgroundColor=#ffffff;verticalAlign=top;align=center;perimeter=rhombusPerimeter;outlineConnect=0;outline=none;symbol=none;" vertex="1" parent="NyDnFR12pi94oh-g-XMe-24">
          <mxGeometry x="114" y="87" width="50" height="50" as="geometry" />
        </mxCell>
        <mxCell id="NyDnFR12pi94oh-g-XMe-28" value="&lt;font style=&quot;vertical-align: inherit;&quot;&gt;&lt;font style=&quot;vertical-align: inherit;&quot;&gt;Disponible&lt;/font&gt;&lt;/font&gt;" style="text;html=1;align=center;verticalAlign=middle;whiteSpace=wrap;rounded=0;" vertex="1" parent="NyDnFR12pi94oh-g-XMe-24">
          <mxGeometry x="50" y="97" width="60" height="30" as="geometry" />
        </mxCell>
        <mxCell id="NyDnFR12pi94oh-g-XMe-29" value="Si" style="text;html=1;align=center;verticalAlign=middle;whiteSpace=wrap;rounded=0;" vertex="1" parent="NyDnFR12pi94oh-g-XMe-24">
          <mxGeometry x="150" y="87" width="60" height="30" as="geometry" />
        </mxCell>
        <mxCell id="NyDnFR12pi94oh-g-XMe-30" value="No" style="text;html=1;align=center;verticalAlign=middle;whiteSpace=wrap;rounded=0;" vertex="1" parent="NyDnFR12pi94oh-g-XMe-24">
          <mxGeometry x="150" y="117" width="60" height="30" as="geometry" />
        </mxCell>
        <mxCell id="NyDnFR12pi94oh-g-XMe-31" value="" style="swimlane;swimlaneHead=0;swimlaneBody=0;fontStyle=1;connectable=0;strokeColor=inherit;fillColor=none;startSize=0;collapsible=0;recursiveResize=0;expand=0;fontSize=16;" vertex="1" parent="NyDnFR12pi94oh-g-XMe-23">
          <mxGeometry x="246" width="324" height="150" as="geometry">
            <mxRectangle width="324" height="150" as="alternateBounds" />
          </mxGeometry>
        </mxCell>
        <mxCell id="NyDnFR12pi94oh-g-XMe-32" value="&lt;span style=&quot;color: rgb(68, 68, 68); font-family: Arial, sans-serif;&quot;&gt;Envía opciones al cliente&lt;/span&gt;" style="points=[[0.25,0,0],[0.5,0,0],[0.75,0,0],[1,0.25,0],[1,0.5,0],[1,0.75,0],[0.75,1,0],[0.5,1,0],[0.25,1,0],[0,0.75,0],[0,0.5,0],[0,0.25,0]];shape=mxgraph.bpmn.task;whiteSpace=wrap;rectStyle=rounded;size=10;html=1;container=1;expand=0;collapsible=0;taskMarker=abstract;" vertex="1" parent="NyDnFR12pi94oh-g-XMe-31">
          <mxGeometry x="4" y="50.5" width="86" height="36.5" as="geometry" />
        </mxCell>
        <mxCell id="NyDnFR12pi94oh-g-XMe-33" value="&lt;span style=&quot;color: rgb(68, 68, 68); font-family: Arial, sans-serif;&quot;&gt;Organiza visita a la propiedad&amp;nbsp;&lt;/span&gt;" style="points=[[0.25,0,0],[0.5,0,0],[0.75,0,0],[1,0.25,0],[1,0.5,0],[1,0.75,0],[0.75,1,0],[0.5,1,0],[0.25,1,0],[0,0.75,0],[0,0.5,0],[0,0.25,0]];shape=mxgraph.bpmn.task;whiteSpace=wrap;rectStyle=rounded;size=10;html=1;container=1;expand=0;collapsible=0;taskMarker=abstract;" vertex="1" parent="NyDnFR12pi94oh-g-XMe-31">
          <mxGeometry x="124" y="50.5" width="86" height="36.5" as="geometry" />
        </mxCell>
        <mxCell id="NyDnFR12pi94oh-g-XMe-34" value="Ingresa compra" style="points=[[0.25,0,0],[0.5,0,0],[0.75,0,0],[1,0.25,0],[1,0.5,0],[1,0.75,0],[0.75,1,0],[0.5,1,0],[0.25,1,0],[0,0.75,0],[0,0.5,0],[0,0.25,0]];shape=mxgraph.bpmn.task;whiteSpace=wrap;rectStyle=rounded;size=10;html=1;container=1;expand=0;collapsible=0;taskMarker=abstract;" vertex="1" parent="NyDnFR12pi94oh-g-XMe-31">
          <mxGeometry x="224" y="56.75" width="86" height="36.5" as="geometry" />
        </mxCell>
        <mxCell id="NyDnFR12pi94oh-g-XMe-35" value="" style="swimlane;swimlaneHead=0;swimlaneBody=0;fontStyle=1;connectable=0;strokeColor=inherit;fillColor=none;startSize=0;collapsible=0;recursiveResize=0;expand=0;fontSize=16;" vertex="1" parent="NyDnFR12pi94oh-g-XMe-23">
          <mxGeometry x="570" width="170" height="150" as="geometry">
            <mxRectangle width="170" height="150" as="alternateBounds" />
          </mxGeometry>
        </mxCell>
        <mxCell id="NyDnFR12pi94oh-g-XMe-36" value="" style="points=[[0.145,0.145,0],[0.5,0,0],[0.855,0.145,0],[1,0.5,0],[0.855,0.855,0],[0.5,1,0],[0.145,0.855,0],[0,0.5,0]];shape=mxgraph.bpmn.event;html=1;verticalLabelPosition=bottom;labelBackgroundColor=#ffffff;verticalAlign=top;align=center;perimeter=ellipsePerimeter;outlineConnect=0;aspect=fixed;outline=throwing;symbol=general;" vertex="1" parent="NyDnFR12pi94oh-g-XMe-35">
          <mxGeometry x="30" y="95.5" width="33" height="33" as="geometry" />
        </mxCell>
        <mxCell id="NyDnFR12pi94oh-g-XMe-37" value="" style="points=[[0.145,0.145,0],[0.5,0,0],[0.855,0.145,0],[1,0.5,0],[0.855,0.855,0],[0.5,1,0],[0.145,0.855,0],[0,0.5,0]];shape=mxgraph.bpmn.event;html=1;verticalLabelPosition=bottom;labelBackgroundColor=#ffffff;verticalAlign=top;align=center;perimeter=ellipsePerimeter;outlineConnect=0;aspect=fixed;outline=end;symbol=terminate;" vertex="1" parent="NyDnFR12pi94oh-g-XMe-35">
          <mxGeometry x="50" y="30" width="33" height="33" as="geometry" />
        </mxCell>
        <mxCell id="NyDnFR12pi94oh-g-XMe-38" style="edgeStyle=orthogonalEdgeStyle;rounded=0;orthogonalLoop=1;jettySize=auto;html=1;entryX=0;entryY=0.5;entryDx=0;entryDy=0;entryPerimeter=0;" edge="1" parent="NyDnFR12pi94oh-g-XMe-23" source="NyDnFR12pi94oh-g-XMe-27" target="NyDnFR12pi94oh-g-XMe-36">
          <mxGeometry relative="1" as="geometry">
            <Array as="points">
              <mxPoint x="179" y="140" />
              <mxPoint x="540" y="140" />
              <mxPoint x="540" y="113" />
              <mxPoint x="580" y="113" />
            </Array>
            <mxPoint x="530" y="70" as="targetPoint" />
          </mxGeometry>
        </mxCell>
        <mxCell id="NyDnFR12pi94oh-g-XMe-39" style="edgeStyle=orthogonalEdgeStyle;rounded=0;orthogonalLoop=1;jettySize=auto;html=1;" edge="1" parent="NyDnFR12pi94oh-g-XMe-23" source="NyDnFR12pi94oh-g-XMe-27" target="NyDnFR12pi94oh-g-XMe-32">
          <mxGeometry relative="1" as="geometry">
            <Array as="points">
              <mxPoint x="290" y="112" />
            </Array>
          </mxGeometry>
        </mxCell>
        <mxCell id="NyDnFR12pi94oh-g-XMe-40" style="edgeStyle=orthogonalEdgeStyle;rounded=0;orthogonalLoop=1;jettySize=auto;html=1;" edge="1" parent="NyDnFR12pi94oh-g-XMe-23" source="NyDnFR12pi94oh-g-XMe-34" target="NyDnFR12pi94oh-g-XMe-37">
          <mxGeometry relative="1" as="geometry" />
        </mxCell>
        <mxCell id="NyDnFR12pi94oh-g-XMe-41" style="edgeStyle=orthogonalEdgeStyle;rounded=0;orthogonalLoop=1;jettySize=auto;html=1;entryX=0.5;entryY=0;entryDx=0;entryDy=0;entryPerimeter=0;" edge="1" parent="NyDnFR12pi94oh-g-XMe-1" source="NyDnFR12pi94oh-g-XMe-5" target="NyDnFR12pi94oh-g-XMe-26">
          <mxGeometry relative="1" as="geometry" />
        </mxCell>
        <mxCell id="NyDnFR12pi94oh-g-XMe-42" style="edgeStyle=orthogonalEdgeStyle;rounded=0;orthogonalLoop=1;jettySize=auto;html=1;entryX=0.5;entryY=1;entryDx=0;entryDy=0;entryPerimeter=0;" edge="1" parent="NyDnFR12pi94oh-g-XMe-1" source="NyDnFR12pi94oh-g-XMe-32" target="NyDnFR12pi94oh-g-XMe-8">
          <mxGeometry relative="1" as="geometry">
            <mxPoint x="300" y="140" as="targetPoint" />
          </mxGeometry>
        </mxCell>
        <mxCell id="NyDnFR12pi94oh-g-XMe-43" style="edgeStyle=orthogonalEdgeStyle;rounded=0;orthogonalLoop=1;jettySize=auto;html=1;entryX=0.96;entryY=-0.055;entryDx=0;entryDy=0;entryPerimeter=0;" edge="1" parent="NyDnFR12pi94oh-g-XMe-1" source="NyDnFR12pi94oh-g-XMe-8" target="NyDnFR12pi94oh-g-XMe-26">
          <mxGeometry relative="1" as="geometry" />
        </mxCell>
        <mxCell id="NyDnFR12pi94oh-g-XMe-44" style="edgeStyle=orthogonalEdgeStyle;rounded=0;orthogonalLoop=1;jettySize=auto;html=1;entryX=0.25;entryY=0;entryDx=0;entryDy=0;entryPerimeter=0;" edge="1" parent="NyDnFR12pi94oh-g-XMe-1" source="NyDnFR12pi94oh-g-XMe-8" target="NyDnFR12pi94oh-g-XMe-33">
          <mxGeometry relative="1" as="geometry" />
        </mxCell>
        <mxCell id="NyDnFR12pi94oh-g-XMe-45" style="edgeStyle=orthogonalEdgeStyle;rounded=0;orthogonalLoop=1;jettySize=auto;html=1;entryX=0.5;entryY=1;entryDx=0;entryDy=0;entryPerimeter=0;" edge="1" parent="NyDnFR12pi94oh-g-XMe-1" source="NyDnFR12pi94oh-g-XMe-33" target="NyDnFR12pi94oh-g-XMe-12">
          <mxGeometry relative="1" as="geometry" />
        </mxCell>
        <mxCell id="NyDnFR12pi94oh-g-XMe-46" style="edgeStyle=orthogonalEdgeStyle;rounded=0;orthogonalLoop=1;jettySize=auto;html=1;entryX=0.5;entryY=0;entryDx=0;entryDy=0;entryPerimeter=0;" edge="1" parent="NyDnFR12pi94oh-g-XMe-1" source="NyDnFR12pi94oh-g-XMe-17" target="NyDnFR12pi94oh-g-XMe-34">
          <mxGeometry relative="1" as="geometry">
            <mxPoint x="515" y="280" as="targetPoint" />
          </mxGeometry>
        </mxCell>
      </root>
    </mxGraphModel>
  </diagram>
  <diagram id="8VbnWx8yKkdWs5WtRD2Q" name="Página-2">
    <mxGraphModel dx="2200" dy="1085" grid="1" gridSize="10" guides="1" tooltips="1" connect="1" arrows="1" fold="1" page="1" pageScale="1" pageWidth="827" pageHeight="1169" math="0" shadow="0">
      <root>
        <mxCell id="0" />
        <mxCell id="1" parent="0" />
        <mxCell id="xiepM46YsarZuqj53aMJ-16" value="Business Interface" style="html=1;outlineConnect=0;whiteSpace=wrap;fillColor=#ffff99;shape=mxgraph.archimate3.application;appType=interface;archiType=square;verticalAlign=top;" vertex="1" parent="1">
          <mxGeometry x="249" y="420" width="335" height="115" as="geometry" />
        </mxCell>
        <mxCell id="xiepM46YsarZuqj53aMJ-2" value="&lt;font style=&quot;font-size: 21px;&quot;&gt;MODELO ARQUITECTONICO NEGOCIO - URBANI&lt;/font&gt;" style="text;html=1;align=center;verticalAlign=middle;whiteSpace=wrap;rounded=0;" vertex="1" parent="1">
          <mxGeometry x="236.5" y="80" width="360" height="30" as="geometry" />
        </mxCell>
        <mxCell id="xiepM46YsarZuqj53aMJ-8" value="Business Actor" style="html=1;outlineConnect=0;whiteSpace=wrap;fillColor=#ffff99;shape=mxgraph.archimate3.application;appType=actor;archiType=square;verticalAlign=top;" vertex="1" parent="1">
          <mxGeometry x="249" y="190" width="150" height="150" as="geometry" />
        </mxCell>
        <mxCell id="xiepM46YsarZuqj53aMJ-11" value="Contract" style="html=1;outlineConnect=0;whiteSpace=wrap;fillColor=#ffff99;shape=mxgraph.archimate3.application;appType=contract;archiType=square;verticalAlign=top;" vertex="1" parent="1">
          <mxGeometry x="321.5" y="900" width="185" height="140" as="geometry" />
        </mxCell>
        <mxCell id="xiepM46YsarZuqj53aMJ-12" value="Factura" style="html=1;outlineConnect=0;whiteSpace=wrap;fillColor=#ffff99;shape=mxgraph.archimate3.contract;" vertex="1" parent="1">
          <mxGeometry x="351.5" y="930" width="125" height="90" as="geometry" />
        </mxCell>
        <mxCell id="xiepM46YsarZuqj53aMJ-21" style="edgeStyle=orthogonalEdgeStyle;rounded=0;orthogonalLoop=1;jettySize=auto;html=1;" edge="1" parent="1" source="xiepM46YsarZuqj53aMJ-7" target="xiepM46YsarZuqj53aMJ-17">
          <mxGeometry relative="1" as="geometry">
            <Array as="points">
              <mxPoint x="324" y="400" />
              <mxPoint x="284" y="400" />
            </Array>
          </mxGeometry>
        </mxCell>
        <mxCell id="xiepM46YsarZuqj53aMJ-22" style="edgeStyle=orthogonalEdgeStyle;rounded=0;orthogonalLoop=1;jettySize=auto;html=1;" edge="1" parent="1" source="xiepM46YsarZuqj53aMJ-7" target="xiepM46YsarZuqj53aMJ-18">
          <mxGeometry relative="1" as="geometry">
            <Array as="points">
              <mxPoint x="324" y="400" />
              <mxPoint x="364" y="400" />
            </Array>
          </mxGeometry>
        </mxCell>
        <mxCell id="xiepM46YsarZuqj53aMJ-24" style="edgeStyle=orthogonalEdgeStyle;rounded=0;orthogonalLoop=1;jettySize=auto;html=1;" edge="1" parent="1" source="xiepM46YsarZuqj53aMJ-7" target="xiepM46YsarZuqj53aMJ-20">
          <mxGeometry relative="1" as="geometry">
            <Array as="points">
              <mxPoint x="324" y="400" />
              <mxPoint x="529" y="400" />
            </Array>
          </mxGeometry>
        </mxCell>
        <mxCell id="xiepM46YsarZuqj53aMJ-7" value="" style="html=1;outlineConnect=0;whiteSpace=wrap;fillColor=#000000;verticalLabelPosition=bottom;verticalAlign=top;align=center;shape=mxgraph.archimate3.actor;strokeColor=#6D1F00;fontColor=#ffffff;gradientColor=none;" vertex="1" parent="1">
          <mxGeometry x="299" y="230" width="50" height="90" as="geometry" />
        </mxCell>
        <mxCell id="xiepM46YsarZuqj53aMJ-4" value="Cliente" style="text;html=1;align=center;verticalAlign=middle;whiteSpace=wrap;rounded=0;" vertex="1" parent="1">
          <mxGeometry x="294" y="310" width="60" height="30" as="geometry" />
        </mxCell>
        <mxCell id="xiepM46YsarZuqj53aMJ-13" value="Business Actor" style="html=1;outlineConnect=0;whiteSpace=wrap;fillColor=#ffff99;shape=mxgraph.archimate3.application;appType=actor;archiType=square;verticalAlign=top;" vertex="1" parent="1">
          <mxGeometry x="434" y="190" width="150" height="150" as="geometry" />
        </mxCell>
        <mxCell id="xiepM46YsarZuqj53aMJ-14" value="" style="html=1;outlineConnect=0;whiteSpace=wrap;fillColor=#000000;verticalLabelPosition=bottom;verticalAlign=top;align=center;shape=mxgraph.archimate3.actor;strokeColor=#6D1F00;fontColor=#ffffff;gradientColor=none;" vertex="1" parent="1">
          <mxGeometry x="484" y="230" width="50" height="90" as="geometry" />
        </mxCell>
        <mxCell id="xiepM46YsarZuqj53aMJ-15" value="Sistema" style="text;html=1;align=center;verticalAlign=middle;whiteSpace=wrap;rounded=0;" vertex="1" parent="1">
          <mxGeometry x="479" y="310" width="60" height="30" as="geometry" />
        </mxCell>
        <mxCell id="xiepM46YsarZuqj53aMJ-17" value="Crear venta" style="html=1;outlineConnect=0;whiteSpace=wrap;fillColor=#ffff99;shape=mxgraph.archimate3.interface;verticalAlign=bottom;fontStyle=1" vertex="1" parent="1">
          <mxGeometry x="249" y="475" width="70" height="35" as="geometry" />
        </mxCell>
        <mxCell id="xiepM46YsarZuqj53aMJ-18" value="Modificar venta" style="html=1;outlineConnect=0;whiteSpace=wrap;fillColor=#ffff99;shape=mxgraph.archimate3.interface;verticalAlign=bottom;fontStyle=1" vertex="1" parent="1">
          <mxGeometry x="329" y="475" width="70" height="35" as="geometry" />
        </mxCell>
        <mxCell id="xiepM46YsarZuqj53aMJ-19" value="Retirar venta" style="html=1;outlineConnect=0;whiteSpace=wrap;fillColor=#ffff99;shape=mxgraph.archimate3.interface;verticalAlign=bottom;fontStyle=1" vertex="1" parent="1">
          <mxGeometry x="414" y="475" width="70" height="35" as="geometry" />
        </mxCell>
        <mxCell id="xiepM46YsarZuqj53aMJ-20" value="Consultar venta" style="html=1;outlineConnect=0;whiteSpace=wrap;fillColor=#ffff99;shape=mxgraph.archimate3.interface;verticalAlign=bottom;fontStyle=1" vertex="1" parent="1">
          <mxGeometry x="504" y="475" width="70" height="35" as="geometry" />
        </mxCell>
        <mxCell id="xiepM46YsarZuqj53aMJ-23" style="edgeStyle=orthogonalEdgeStyle;rounded=0;orthogonalLoop=1;jettySize=auto;html=1;entryX=0.75;entryY=0;entryDx=0;entryDy=0;entryPerimeter=0;" edge="1" parent="1" source="xiepM46YsarZuqj53aMJ-7" target="xiepM46YsarZuqj53aMJ-19">
          <mxGeometry relative="1" as="geometry">
            <Array as="points">
              <mxPoint x="324" y="400" />
              <mxPoint x="467" y="400" />
            </Array>
          </mxGeometry>
        </mxCell>
        <mxCell id="xiepM46YsarZuqj53aMJ-26" style="edgeStyle=orthogonalEdgeStyle;rounded=0;orthogonalLoop=1;jettySize=auto;html=1;entryX=0.75;entryY=0;entryDx=0;entryDy=0;entryPerimeter=0;" edge="1" parent="1" source="xiepM46YsarZuqj53aMJ-14" target="xiepM46YsarZuqj53aMJ-19">
          <mxGeometry relative="1" as="geometry">
            <Array as="points">
              <mxPoint x="509" y="400" />
              <mxPoint x="467" y="400" />
            </Array>
          </mxGeometry>
        </mxCell>
        <mxCell id="xiepM46YsarZuqj53aMJ-44" style="edgeStyle=orthogonalEdgeStyle;rounded=0;orthogonalLoop=1;jettySize=auto;html=1;" edge="1" parent="1" source="xiepM46YsarZuqj53aMJ-27" target="xiepM46YsarZuqj53aMJ-41">
          <mxGeometry relative="1" as="geometry" />
        </mxCell>
        <mxCell id="xiepM46YsarZuqj53aMJ-45" style="edgeStyle=orthogonalEdgeStyle;rounded=0;orthogonalLoop=1;jettySize=auto;html=1;" edge="1" parent="1" source="xiepM46YsarZuqj53aMJ-27" target="xiepM46YsarZuqj53aMJ-39">
          <mxGeometry relative="1" as="geometry" />
        </mxCell>
        <mxCell id="xiepM46YsarZuqj53aMJ-27" value="Business Service" style="html=1;outlineConnect=0;whiteSpace=wrap;fillColor=#ffff99;shape=mxgraph.archimate3.application;appType=serv;archiType=rounded;verticalAlign=top;" vertex="1" parent="1">
          <mxGeometry x="249" y="590" width="335" height="100" as="geometry" />
        </mxCell>
        <mxCell id="xiepM46YsarZuqj53aMJ-28" value="VENTA" style="html=1;outlineConnect=0;whiteSpace=wrap;fillColor=#ffff99;shape=mxgraph.archimate3.service;" vertex="1" parent="1">
          <mxGeometry x="304" y="622.5" width="220" height="47.5" as="geometry" />
        </mxCell>
        <mxCell id="xiepM46YsarZuqj53aMJ-29" style="edgeStyle=orthogonalEdgeStyle;rounded=0;orthogonalLoop=1;jettySize=auto;html=1;entryX=0;entryY=0;entryDx=0;entryDy=23.75;entryPerimeter=0;" edge="1" parent="1" source="xiepM46YsarZuqj53aMJ-17" target="xiepM46YsarZuqj53aMJ-28">
          <mxGeometry relative="1" as="geometry" />
        </mxCell>
        <mxCell id="xiepM46YsarZuqj53aMJ-30" style="edgeStyle=orthogonalEdgeStyle;rounded=0;orthogonalLoop=1;jettySize=auto;html=1;entryX=0;entryY=0;entryDx=23.75;entryDy=0;entryPerimeter=0;" edge="1" parent="1" source="xiepM46YsarZuqj53aMJ-18" target="xiepM46YsarZuqj53aMJ-28">
          <mxGeometry relative="1" as="geometry" />
        </mxCell>
        <mxCell id="xiepM46YsarZuqj53aMJ-31" style="edgeStyle=orthogonalEdgeStyle;rounded=0;orthogonalLoop=1;jettySize=auto;html=1;entryX=0;entryY=0;entryDx=196.25;entryDy=0;entryPerimeter=0;" edge="1" parent="1" source="xiepM46YsarZuqj53aMJ-19" target="xiepM46YsarZuqj53aMJ-28">
          <mxGeometry relative="1" as="geometry" />
        </mxCell>
        <mxCell id="xiepM46YsarZuqj53aMJ-32" style="edgeStyle=orthogonalEdgeStyle;rounded=0;orthogonalLoop=1;jettySize=auto;html=1;entryX=0;entryY=0;entryDx=220;entryDy=23.75;entryPerimeter=0;" edge="1" parent="1" source="xiepM46YsarZuqj53aMJ-20" target="xiepM46YsarZuqj53aMJ-28">
          <mxGeometry relative="1" as="geometry">
            <Array as="points">
              <mxPoint x="539" y="646" />
            </Array>
          </mxGeometry>
        </mxCell>
        <mxCell id="xiepM46YsarZuqj53aMJ-33" value="Product" style="html=1;outlineConnect=0;whiteSpace=wrap;fillColor=#ffff99;shape=mxgraph.archimate3.application;appType=product;archiType=square;" vertex="1" parent="1">
          <mxGeometry x="339" y="1080" width="150" height="75" as="geometry" />
        </mxCell>
        <mxCell id="xiepM46YsarZuqj53aMJ-34" style="edgeStyle=orthogonalEdgeStyle;rounded=0;orthogonalLoop=1;jettySize=auto;html=1;entryX=0.5;entryY=0;entryDx=0;entryDy=0;entryPerimeter=0;" edge="1" parent="1" source="xiepM46YsarZuqj53aMJ-11" target="xiepM46YsarZuqj53aMJ-33">
          <mxGeometry relative="1" as="geometry" />
        </mxCell>
        <mxCell id="xiepM46YsarZuqj53aMJ-47" style="edgeStyle=orthogonalEdgeStyle;rounded=0;orthogonalLoop=1;jettySize=auto;html=1;" edge="1" parent="1" source="xiepM46YsarZuqj53aMJ-35" target="xiepM46YsarZuqj53aMJ-11">
          <mxGeometry relative="1" as="geometry">
            <Array as="points">
              <mxPoint x="149" y="970" />
            </Array>
          </mxGeometry>
        </mxCell>
        <mxCell id="xiepM46YsarZuqj53aMJ-35" value="Business Process" style="html=1;outlineConnect=0;whiteSpace=wrap;fillColor=#ffff99;shape=mxgraph.archimate3.application;appType=proc;archiType=rounded;verticalAlign=top;" vertex="1" parent="1">
          <mxGeometry x="74" y="730" width="150" height="130" as="geometry" />
        </mxCell>
        <mxCell id="xiepM46YsarZuqj53aMJ-36" value="Ingresar venta" style="html=1;outlineConnect=0;whiteSpace=wrap;fillColor=#ffff99;shape=mxgraph.archimate3.process;" vertex="1" parent="1">
          <mxGeometry x="119" y="760" width="60" height="90" as="geometry" />
        </mxCell>
        <mxCell id="xiepM46YsarZuqj53aMJ-37" value="Business Process" style="html=1;outlineConnect=0;whiteSpace=wrap;fillColor=#ffff99;shape=mxgraph.archimate3.application;appType=proc;archiType=rounded;verticalAlign=top;" vertex="1" parent="1">
          <mxGeometry x="249" y="730" width="150" height="130" as="geometry" />
        </mxCell>
        <mxCell id="xiepM46YsarZuqj53aMJ-38" value="Modificar venta" style="html=1;outlineConnect=0;whiteSpace=wrap;fillColor=#ffff99;shape=mxgraph.archimate3.process;" vertex="1" parent="1">
          <mxGeometry x="294" y="760" width="60" height="90" as="geometry" />
        </mxCell>
        <mxCell id="xiepM46YsarZuqj53aMJ-49" style="edgeStyle=orthogonalEdgeStyle;rounded=0;orthogonalLoop=1;jettySize=auto;html=1;entryX=0.75;entryY=0;entryDx=0;entryDy=0;entryPerimeter=0;" edge="1" parent="1" source="xiepM46YsarZuqj53aMJ-39" target="xiepM46YsarZuqj53aMJ-11">
          <mxGeometry relative="1" as="geometry" />
        </mxCell>
        <mxCell id="xiepM46YsarZuqj53aMJ-39" value="Business Process" style="html=1;outlineConnect=0;whiteSpace=wrap;fillColor=#ffff99;shape=mxgraph.archimate3.application;appType=proc;archiType=rounded;verticalAlign=top;" vertex="1" parent="1">
          <mxGeometry x="424" y="730" width="150" height="130" as="geometry" />
        </mxCell>
        <mxCell id="xiepM46YsarZuqj53aMJ-40" value="Retirar venta" style="html=1;outlineConnect=0;whiteSpace=wrap;fillColor=#ffff99;shape=mxgraph.archimate3.process;" vertex="1" parent="1">
          <mxGeometry x="469" y="760" width="60" height="90" as="geometry" />
        </mxCell>
        <mxCell id="xiepM46YsarZuqj53aMJ-41" value="Business Process" style="html=1;outlineConnect=0;whiteSpace=wrap;fillColor=#ffff99;shape=mxgraph.archimate3.application;appType=proc;archiType=rounded;verticalAlign=top;" vertex="1" parent="1">
          <mxGeometry x="604" y="730" width="150" height="130" as="geometry" />
        </mxCell>
        <mxCell id="xiepM46YsarZuqj53aMJ-42" value="Consultar venta" style="html=1;outlineConnect=0;whiteSpace=wrap;fillColor=#ffff99;shape=mxgraph.archimate3.process;" vertex="1" parent="1">
          <mxGeometry x="649" y="760" width="60" height="90" as="geometry" />
        </mxCell>
        <mxCell id="xiepM46YsarZuqj53aMJ-43" style="edgeStyle=orthogonalEdgeStyle;rounded=0;orthogonalLoop=1;jettySize=auto;html=1;entryX=0.5;entryY=0;entryDx=0;entryDy=0;entryPerimeter=0;" edge="1" parent="1" source="xiepM46YsarZuqj53aMJ-27" target="xiepM46YsarZuqj53aMJ-35">
          <mxGeometry relative="1" as="geometry" />
        </mxCell>
        <mxCell id="xiepM46YsarZuqj53aMJ-46" style="edgeStyle=orthogonalEdgeStyle;rounded=0;orthogonalLoop=1;jettySize=auto;html=1;entryX=0.5;entryY=0;entryDx=0;entryDy=0;entryPerimeter=0;" edge="1" parent="1" source="xiepM46YsarZuqj53aMJ-27" target="xiepM46YsarZuqj53aMJ-37">
          <mxGeometry relative="1" as="geometry" />
        </mxCell>
        <mxCell id="xiepM46YsarZuqj53aMJ-48" style="edgeStyle=orthogonalEdgeStyle;rounded=0;orthogonalLoop=1;jettySize=auto;html=1;entryX=1;entryY=0.5;entryDx=0;entryDy=0;entryPerimeter=0;" edge="1" parent="1" source="xiepM46YsarZuqj53aMJ-41" target="xiepM46YsarZuqj53aMJ-11">
          <mxGeometry relative="1" as="geometry">
            <Array as="points">
              <mxPoint x="684" y="970" />
            </Array>
          </mxGeometry>
        </mxCell>
        <mxCell id="xiepM46YsarZuqj53aMJ-50" style="edgeStyle=orthogonalEdgeStyle;rounded=0;orthogonalLoop=1;jettySize=auto;html=1;entryX=0.25;entryY=0;entryDx=0;entryDy=0;entryPerimeter=0;" edge="1" parent="1" source="xiepM46YsarZuqj53aMJ-37" target="xiepM46YsarZuqj53aMJ-11">
          <mxGeometry relative="1" as="geometry" />
        </mxCell>
      </root>
    </mxGraphModel>
  </diagram>
  <diagram id="TxQgyhN0wNlDpQPuLcFa" name="Página-5">
    <mxGraphModel dx="1100" dy="543" grid="1" gridSize="10" guides="1" tooltips="1" connect="1" arrows="1" fold="1" page="1" pageScale="1" pageWidth="827" pageHeight="1169" math="0" shadow="0">
      <root>
        <mxCell id="0" />
        <mxCell id="1" parent="0" />
        <mxCell id="37TBZBCKEFRjg2R77PS_-1" value="&lt;font style=&quot;font-size: 21px;&quot;&gt;OBJETOS NEGOCIO ALTO VALOR&amp;nbsp;&amp;nbsp;- URBANI&lt;/font&gt;" style="text;html=1;align=center;verticalAlign=middle;whiteSpace=wrap;rounded=0;" vertex="1" parent="1">
          <mxGeometry x="236.5" y="80" width="360" height="30" as="geometry" />
        </mxCell>
        <mxCell id="9ywhL-xvNWMc_nrIBmhD-6" value="" style="ellipse;whiteSpace=wrap;html=1;aspect=fixed;" vertex="1" parent="1">
          <mxGeometry x="356.5" y="290" width="120" height="120" as="geometry" />
        </mxCell>
        <mxCell id="c0tFynrSpRuVFGLftKWx-1" value="&lt;span style=&quot;color: rgb(0, 0, 0); font-family: Helvetica; font-size: 17px; font-style: normal; font-variant-ligatures: normal; font-variant-caps: normal; font-weight: 400; letter-spacing: normal; orphans: 2; text-align: center; text-indent: 0px; text-transform: none; widows: 2; word-spacing: 0px; -webkit-text-stroke-width: 0px; white-space: normal; background-color: rgb(251, 251, 251); text-decoration-thickness: initial; text-decoration-style: initial; text-decoration-color: initial; display: inline !important; float: none;&quot;&gt;Transaccion&lt;/span&gt;" style="text;whiteSpace=wrap;html=1;" vertex="1" parent="1">
          <mxGeometry x="369" y="330" width="95" height="40" as="geometry" />
        </mxCell>
        <mxCell id="yw1cn83Wmxery_dKRhpc-1" style="edgeStyle=orthogonalEdgeStyle;rounded=0;orthogonalLoop=1;jettySize=auto;html=1;entryX=1;entryY=0.5;entryDx=0;entryDy=0;" edge="1" parent="1" source="c0tFynrSpRuVFGLftKWx-2" target="9ywhL-xvNWMc_nrIBmhD-6">
          <mxGeometry relative="1" as="geometry" />
        </mxCell>
        <mxCell id="c0tFynrSpRuVFGLftKWx-2" value="" style="ellipse;whiteSpace=wrap;html=1;aspect=fixed;" vertex="1" parent="1">
          <mxGeometry x="510" y="290" width="120" height="120" as="geometry" />
        </mxCell>
        <mxCell id="yw1cn83Wmxery_dKRhpc-4" style="edgeStyle=orthogonalEdgeStyle;rounded=0;orthogonalLoop=1;jettySize=auto;html=1;" edge="1" parent="1" source="c0tFynrSpRuVFGLftKWx-3" target="9ywhL-xvNWMc_nrIBmhD-6">
          <mxGeometry relative="1" as="geometry" />
        </mxCell>
        <mxCell id="c0tFynrSpRuVFGLftKWx-3" value="" style="ellipse;whiteSpace=wrap;html=1;aspect=fixed;" vertex="1" parent="1">
          <mxGeometry x="356.5" y="140" width="120" height="120" as="geometry" />
        </mxCell>
        <mxCell id="yw1cn83Wmxery_dKRhpc-2" style="edgeStyle=orthogonalEdgeStyle;rounded=0;orthogonalLoop=1;jettySize=auto;html=1;entryX=0;entryY=0.5;entryDx=0;entryDy=0;" edge="1" parent="1" source="c0tFynrSpRuVFGLftKWx-4" target="9ywhL-xvNWMc_nrIBmhD-6">
          <mxGeometry relative="1" as="geometry" />
        </mxCell>
        <mxCell id="c0tFynrSpRuVFGLftKWx-4" value="" style="ellipse;whiteSpace=wrap;html=1;aspect=fixed;" vertex="1" parent="1">
          <mxGeometry x="200" y="290" width="120" height="120" as="geometry" />
        </mxCell>
        <mxCell id="yw1cn83Wmxery_dKRhpc-3" style="edgeStyle=orthogonalEdgeStyle;rounded=0;orthogonalLoop=1;jettySize=auto;html=1;entryX=0.5;entryY=1;entryDx=0;entryDy=0;" edge="1" parent="1" source="c0tFynrSpRuVFGLftKWx-5" target="9ywhL-xvNWMc_nrIBmhD-6">
          <mxGeometry relative="1" as="geometry" />
        </mxCell>
        <mxCell id="c0tFynrSpRuVFGLftKWx-5" value="" style="ellipse;whiteSpace=wrap;html=1;aspect=fixed;" vertex="1" parent="1">
          <mxGeometry x="356.5" y="450" width="120" height="120" as="geometry" />
        </mxCell>
        <mxCell id="bp6qeqE4hTU1IEzp7qno-1" value="&lt;span style=&quot;color: rgb(0, 0, 0); font-family: Helvetica; font-size: 17px; font-style: normal; font-variant-ligatures: normal; font-variant-caps: normal; font-weight: 400; letter-spacing: normal; orphans: 2; text-align: center; text-indent: 0px; text-transform: none; widows: 2; word-spacing: 0px; -webkit-text-stroke-width: 0px; white-space: normal; background-color: rgb(251, 251, 251); text-decoration-thickness: initial; text-decoration-style: initial; text-decoration-color: initial; display: inline !important; float: none;&quot;&gt;Geografia&lt;/span&gt;" style="text;whiteSpace=wrap;html=1;" vertex="1" parent="1">
          <mxGeometry x="376" y="180" width="81" height="40" as="geometry" />
        </mxCell>
        <mxCell id="bp6qeqE4hTU1IEzp7qno-2" value="&lt;div style=&quot;text-align: center;&quot;&gt;&lt;span style=&quot;background-color: initial; font-size: 17px;&quot;&gt;Producto&lt;/span&gt;&lt;/div&gt;" style="text;whiteSpace=wrap;html=1;" vertex="1" parent="1">
          <mxGeometry x="531.25" y="330" width="77.5" height="40" as="geometry" />
        </mxCell>
        <mxCell id="bp6qeqE4hTU1IEzp7qno-3" value="&lt;span style=&quot;color: rgb(0, 0, 0); font-family: Helvetica; font-size: 17px; font-style: normal; font-variant-ligatures: normal; font-variant-caps: normal; font-weight: 400; letter-spacing: normal; orphans: 2; text-align: center; text-indent: 0px; text-transform: none; widows: 2; word-spacing: 0px; -webkit-text-stroke-width: 0px; white-space: normal; background-color: rgb(251, 251, 251); text-decoration-thickness: initial; text-decoration-style: initial; text-decoration-color: initial; display: inline !important; float: none;&quot;&gt;Empresa&lt;/span&gt;" style="text;whiteSpace=wrap;html=1;" vertex="1" parent="1">
          <mxGeometry x="221.25" y="330" width="77.5" height="40" as="geometry" />
        </mxCell>
        <mxCell id="bp6qeqE4hTU1IEzp7qno-4" value="&lt;div style=&quot;text-align: center;&quot;&gt;&lt;span style=&quot;background-color: initial; font-size: 17px;&quot;&gt;Usuario&lt;/span&gt;&lt;/div&gt;" style="text;whiteSpace=wrap;html=1;" vertex="1" parent="1">
          <mxGeometry x="386" y="490" width="61" height="40" as="geometry" />
        </mxCell>
      </root>
    </mxGraphModel>
  </diagram>
  <diagram id="MJ8mlJMs96_kzvk8TjZg" name="Página-6">
    <mxGraphModel dx="1956" dy="964" grid="1" gridSize="10" guides="1" tooltips="1" connect="1" arrows="1" fold="1" page="1" pageScale="1" pageWidth="827" pageHeight="1169" math="0" shadow="0">
      <root>
        <mxCell id="0" />
        <mxCell id="1" parent="0" />
        <mxCell id="egA1XDse-XrGJ6Tr9GRG-1" value="&lt;font style=&quot;font-size: 21px;&quot;&gt;ENTIDADES NEGOCIO ALTO VALOR - URBANI&lt;/font&gt;" style="text;html=1;align=center;verticalAlign=middle;whiteSpace=wrap;rounded=0;" vertex="1" parent="1">
          <mxGeometry x="174" y="40" width="480" height="30" as="geometry" />
        </mxCell>
        <mxCell id="wv1aUDyjZDVNUsxtJ_1p-1" value="" style="ellipse;whiteSpace=wrap;html=1;aspect=fixed;" vertex="1" parent="1">
          <mxGeometry x="44" y="100" width="310" height="310" as="geometry" />
        </mxCell>
        <mxCell id="wnsPmOyVE-Uv37FJfm_g-1" value="&lt;span style=&quot;color: rgb(0, 0, 0); font-family: Helvetica; font-size: 17px; font-style: normal; font-variant-ligatures: normal; font-variant-caps: normal; font-weight: 400; letter-spacing: normal; orphans: 2; text-align: center; text-indent: 0px; text-transform: none; widows: 2; word-spacing: 0px; -webkit-text-stroke-width: 0px; white-space: normal; background-color: rgb(251, 251, 251); text-decoration-thickness: initial; text-decoration-style: initial; text-decoration-color: initial; display: inline !important; float: none;&quot;&gt;Geografia&lt;/span&gt;" style="text;whiteSpace=wrap;html=1;" vertex="1" parent="1">
          <mxGeometry x="158.5" y="110" width="81" height="40" as="geometry" />
        </mxCell>
        <mxCell id="wnsPmOyVE-Uv37FJfm_g-2" value="" style="ellipse;whiteSpace=wrap;html=1;aspect=fixed;" vertex="1" parent="1">
          <mxGeometry x="74" y="160" width="120" height="120" as="geometry" />
        </mxCell>
        <mxCell id="wnsPmOyVE-Uv37FJfm_g-3" value="" style="ellipse;whiteSpace=wrap;html=1;aspect=fixed;" vertex="1" parent="1">
          <mxGeometry x="204" y="160" width="120" height="120" as="geometry" />
        </mxCell>
        <mxCell id="wnsPmOyVE-Uv37FJfm_g-4" value="" style="ellipse;whiteSpace=wrap;html=1;aspect=fixed;" vertex="1" parent="1">
          <mxGeometry x="139" y="270" width="120" height="120" as="geometry" />
        </mxCell>
        <mxCell id="wnsPmOyVE-Uv37FJfm_g-5" value="Ciudad" style="text;html=1;align=center;verticalAlign=middle;whiteSpace=wrap;rounded=0;" vertex="1" parent="1">
          <mxGeometry x="104" y="205" width="60" height="30" as="geometry" />
        </mxCell>
        <mxCell id="wnsPmOyVE-Uv37FJfm_g-6" value="Pais" style="text;html=1;align=center;verticalAlign=middle;whiteSpace=wrap;rounded=0;" vertex="1" parent="1">
          <mxGeometry x="234" y="205" width="60" height="30" as="geometry" />
        </mxCell>
        <mxCell id="wnsPmOyVE-Uv37FJfm_g-7" value="Departamento" style="text;html=1;align=center;verticalAlign=middle;whiteSpace=wrap;rounded=0;" vertex="1" parent="1">
          <mxGeometry x="169" y="315" width="60" height="30" as="geometry" />
        </mxCell>
        <mxCell id="wnsPmOyVE-Uv37FJfm_g-8" value="" style="ellipse;whiteSpace=wrap;html=1;aspect=fixed;" vertex="1" parent="1">
          <mxGeometry x="474" y="100" width="310" height="310" as="geometry" />
        </mxCell>
        <mxCell id="wnsPmOyVE-Uv37FJfm_g-9" value="&lt;span style=&quot;color: rgb(0, 0, 0); font-family: Helvetica; font-size: 17px; font-style: normal; font-variant-ligatures: normal; font-variant-caps: normal; font-weight: 400; letter-spacing: normal; orphans: 2; text-align: center; text-indent: 0px; text-transform: none; widows: 2; word-spacing: 0px; -webkit-text-stroke-width: 0px; white-space: normal; background-color: rgb(251, 251, 251); text-decoration-thickness: initial; text-decoration-style: initial; text-decoration-color: initial; display: inline !important; float: none;&quot;&gt;Empresa&lt;/span&gt;" style="text;whiteSpace=wrap;html=1;" vertex="1" parent="1">
          <mxGeometry x="596.25" y="110" width="75.5" height="40" as="geometry" />
        </mxCell>
        <mxCell id="wnsPmOyVE-Uv37FJfm_g-10" value="" style="ellipse;whiteSpace=wrap;html=1;aspect=fixed;" vertex="1" parent="1">
          <mxGeometry x="504" y="160" width="120" height="120" as="geometry" />
        </mxCell>
        <mxCell id="wnsPmOyVE-Uv37FJfm_g-11" value="" style="ellipse;whiteSpace=wrap;html=1;aspect=fixed;" vertex="1" parent="1">
          <mxGeometry x="634" y="160" width="120" height="120" as="geometry" />
        </mxCell>
        <mxCell id="wnsPmOyVE-Uv37FJfm_g-12" value="" style="ellipse;whiteSpace=wrap;html=1;aspect=fixed;" vertex="1" parent="1">
          <mxGeometry x="569" y="270" width="120" height="120" as="geometry" />
        </mxCell>
        <mxCell id="wnsPmOyVE-Uv37FJfm_g-13" value="Agencia" style="text;html=1;align=center;verticalAlign=middle;whiteSpace=wrap;rounded=0;" vertex="1" parent="1">
          <mxGeometry x="534" y="205" width="60" height="30" as="geometry" />
        </mxCell>
        <mxCell id="wnsPmOyVE-Uv37FJfm_g-14" value="Sede" style="text;html=1;align=center;verticalAlign=middle;whiteSpace=wrap;rounded=0;" vertex="1" parent="1">
          <mxGeometry x="664" y="205" width="60" height="30" as="geometry" />
        </mxCell>
        <mxCell id="wnsPmOyVE-Uv37FJfm_g-15" value="Empleado" style="text;html=1;align=center;verticalAlign=middle;whiteSpace=wrap;rounded=0;" vertex="1" parent="1">
          <mxGeometry x="599" y="315" width="60" height="30" as="geometry" />
        </mxCell>
        <mxCell id="wnsPmOyVE-Uv37FJfm_g-16" value="" style="ellipse;whiteSpace=wrap;html=1;aspect=fixed;" vertex="1" parent="1">
          <mxGeometry x="44" y="430" width="310" height="310" as="geometry" />
        </mxCell>
        <mxCell id="wnsPmOyVE-Uv37FJfm_g-17" value="&lt;div style=&quot;text-align: center;&quot;&gt;&lt;span style=&quot;background-color: initial; font-size: 17px;&quot;&gt;Usuario&lt;/span&gt;&lt;/div&gt;" style="text;whiteSpace=wrap;html=1;" vertex="1" parent="1">
          <mxGeometry x="171.25" y="440" width="55.5" height="40" as="geometry" />
        </mxCell>
        <mxCell id="wnsPmOyVE-Uv37FJfm_g-18" value="" style="ellipse;whiteSpace=wrap;html=1;aspect=fixed;" vertex="1" parent="1">
          <mxGeometry x="74" y="490" width="120" height="120" as="geometry" />
        </mxCell>
        <mxCell id="wnsPmOyVE-Uv37FJfm_g-19" value="" style="ellipse;whiteSpace=wrap;html=1;aspect=fixed;" vertex="1" parent="1">
          <mxGeometry x="204" y="490" width="120" height="120" as="geometry" />
        </mxCell>
        <mxCell id="wnsPmOyVE-Uv37FJfm_g-20" value="" style="ellipse;whiteSpace=wrap;html=1;aspect=fixed;" vertex="1" parent="1">
          <mxGeometry x="139" y="600" width="120" height="120" as="geometry" />
        </mxCell>
        <mxCell id="wnsPmOyVE-Uv37FJfm_g-21" value="Cliente" style="text;html=1;align=center;verticalAlign=middle;whiteSpace=wrap;rounded=0;" vertex="1" parent="1">
          <mxGeometry x="104" y="535" width="60" height="30" as="geometry" />
        </mxCell>
        <mxCell id="wnsPmOyVE-Uv37FJfm_g-22" value="Tipo genero" style="text;html=1;align=center;verticalAlign=middle;whiteSpace=wrap;rounded=0;" vertex="1" parent="1">
          <mxGeometry x="234" y="535" width="60" height="30" as="geometry" />
        </mxCell>
        <mxCell id="wnsPmOyVE-Uv37FJfm_g-23" value="Tipo documento" style="text;html=1;align=center;verticalAlign=middle;whiteSpace=wrap;rounded=0;" vertex="1" parent="1">
          <mxGeometry x="169" y="645" width="60" height="30" as="geometry" />
        </mxCell>
        <mxCell id="wnsPmOyVE-Uv37FJfm_g-24" value="" style="ellipse;whiteSpace=wrap;html=1;aspect=fixed;" vertex="1" parent="1">
          <mxGeometry x="474" y="430" width="310" height="310" as="geometry" />
        </mxCell>
        <mxCell id="wnsPmOyVE-Uv37FJfm_g-25" value="&lt;div style=&quot;text-align: center;&quot;&gt;&lt;span style=&quot;background-color: initial; font-size: 17px;&quot;&gt;Producto&lt;/span&gt;&lt;/div&gt;" style="text;whiteSpace=wrap;html=1;" vertex="1" parent="1">
          <mxGeometry x="596.25" y="440" width="65.5" height="40" as="geometry" />
        </mxCell>
        <mxCell id="wnsPmOyVE-Uv37FJfm_g-26" value="" style="ellipse;whiteSpace=wrap;html=1;aspect=fixed;" vertex="1" parent="1">
          <mxGeometry x="504" y="490" width="120" height="120" as="geometry" />
        </mxCell>
        <mxCell id="wnsPmOyVE-Uv37FJfm_g-27" value="" style="ellipse;whiteSpace=wrap;html=1;aspect=fixed;" vertex="1" parent="1">
          <mxGeometry x="634" y="490" width="120" height="120" as="geometry" />
        </mxCell>
        <mxCell id="wnsPmOyVE-Uv37FJfm_g-29" value="Propiedad" style="text;html=1;align=center;verticalAlign=middle;whiteSpace=wrap;rounded=0;" vertex="1" parent="1">
          <mxGeometry x="534" y="535" width="60" height="30" as="geometry" />
        </mxCell>
        <mxCell id="wnsPmOyVE-Uv37FJfm_g-30" value="Tipo propiedad" style="text;html=1;align=center;verticalAlign=middle;whiteSpace=wrap;rounded=0;" vertex="1" parent="1">
          <mxGeometry x="664" y="535" width="60" height="30" as="geometry" />
        </mxCell>
      </root>
    </mxGraphModel>
  </diagram>
  <diagram id="PbczUBhK2pgvTGa-KoQZ" name="Página-4">
    <mxGraphModel dx="1257" dy="620" grid="1" gridSize="10" guides="1" tooltips="1" connect="1" arrows="1" fold="1" page="1" pageScale="1" pageWidth="827" pageHeight="1169" math="0" shadow="0">
      <root>
        <mxCell id="0" />
        <mxCell id="1" parent="0" />
        <mxCell id="QDpqknQdW_xKd1De4-6f-38" value="" style="html=1;overflow=block;blockSpacing=1;whiteSpace=wrap;fontSize=13;align=center;spacing=9;rounded=1;absoluteArcSize=1;arcSize=9;strokeWidth=NaN;lucidId=~HTedYTGIx_E;" vertex="1" parent="1">
          <mxGeometry y="190" width="240" height="285" as="geometry" />
        </mxCell>
        <mxCell id="QDpqknQdW_xKd1De4-6f-1" value="Pais" style="html=1;overflow=block;blockSpacing=1;whiteSpace=wrap;fontSize=16.7;align=center;spacing=9;rounded=1;absoluteArcSize=1;arcSize=9;strokeWidth=NaN;lucidId=BITez_5JR8I9;" vertex="1" parent="1">
          <mxGeometry x="45" y="250" width="150" height="45" as="geometry" />
        </mxCell>
        <mxCell id="QDpqknQdW_xKd1De4-6f-2" value="Departamento" style="html=1;overflow=block;blockSpacing=1;whiteSpace=wrap;fontSize=16.7;align=center;spacing=9;rounded=1;absoluteArcSize=1;arcSize=9;strokeWidth=NaN;lucidId=OITeTLTpMnNe;" vertex="1" parent="1">
          <mxGeometry x="45" y="325" width="150" height="45" as="geometry" />
        </mxCell>
        <mxCell id="QDpqknQdW_xKd1De4-6f-3" value="Ciudad" style="html=1;overflow=block;blockSpacing=1;whiteSpace=wrap;fontSize=16.7;align=center;spacing=9;rounded=1;absoluteArcSize=1;arcSize=0;strokeWidth=NaN;lucidId=QITetZ5O9lUV;" vertex="1" parent="1">
          <mxGeometry x="45" y="400" width="150" height="45" as="geometry" />
        </mxCell>
        <mxCell id="QDpqknQdW_xKd1De4-6f-4" value="" style="html=1;jettySize=18;whiteSpace=wrap;fontSize=13;strokeWidth=1.5;rounded=1;arcSize=12;edgeStyle=orthogonalEdgeStyle;startArrow=none;endArrow=block;endFill=1;exitX=0.5;exitY=1.025;exitPerimeter=0;entryX=0.5;entryY=-0.025;entryPerimeter=0;lucidId=tJTen8TrP02v;" edge="1" parent="1" source="QDpqknQdW_xKd1De4-6f-1" target="QDpqknQdW_xKd1De4-6f-2">
          <mxGeometry width="100" height="100" relative="1" as="geometry">
            <Array as="points" />
          </mxGeometry>
        </mxCell>
        <mxCell id="QDpqknQdW_xKd1De4-6f-5" value="" style="html=1;jettySize=18;whiteSpace=wrap;fontSize=13;strokeWidth=1.5;rounded=1;arcSize=12;edgeStyle=orthogonalEdgeStyle;startArrow=none;endArrow=block;endFill=1;exitX=0.5;exitY=1.025;exitPerimeter=0;entryX=0.5;entryY=-0.025;entryPerimeter=0;lucidId=HJTeJ2QRuSRb;" edge="1" parent="1" source="QDpqknQdW_xKd1De4-6f-2" target="QDpqknQdW_xKd1De4-6f-3">
          <mxGeometry width="100" height="100" relative="1" as="geometry">
            <Array as="points" />
          </mxGeometry>
        </mxCell>
        <mxCell id="QDpqknQdW_xKd1De4-6f-6" value="" style="html=1;overflow=block;blockSpacing=1;whiteSpace=wrap;fontSize=13;align=center;spacing=9;rounded=1;absoluteArcSize=1;arcSize=9;strokeWidth=NaN;lucidId=8JTeDUPWvMA0;" vertex="1" parent="1">
          <mxGeometry x="260" y="180" width="240" height="270" as="geometry" />
        </mxCell>
        <mxCell id="QDpqknQdW_xKd1De4-6f-7" value="Empresa" style="html=1;overflow=block;blockSpacing=1;whiteSpace=wrap;fontSize=16.7;align=center;spacing=3.8;strokeOpacity=0;fillOpacity=0;rounded=1;absoluteArcSize=1;arcSize=9;strokeWidth=NaN;lucidId=8JTeCZiZKBvV;" vertex="1" parent="1">
          <mxGeometry x="290" y="195" width="180" height="45" as="geometry" />
        </mxCell>
        <mxCell id="QDpqknQdW_xKd1De4-6f-8" value="Agencia" style="html=1;overflow=block;blockSpacing=1;whiteSpace=wrap;fontSize=16.7;align=center;spacing=9;rounded=1;absoluteArcSize=1;arcSize=9;strokeWidth=NaN;lucidId=8JTeZcX.bsI_;" vertex="1" parent="1">
          <mxGeometry x="305" y="240" width="150" height="45" as="geometry" />
        </mxCell>
        <mxCell id="QDpqknQdW_xKd1De4-6f-9" value="Sede" style="html=1;overflow=block;blockSpacing=1;whiteSpace=wrap;fontSize=16.7;align=center;spacing=9;rounded=1;absoluteArcSize=1;arcSize=9;strokeWidth=NaN;lucidId=8JTeVPgNUMaj;" vertex="1" parent="1">
          <mxGeometry x="305" y="315" width="150" height="45" as="geometry" />
        </mxCell>
        <mxCell id="QDpqknQdW_xKd1De4-6f-10" value="Empleado" style="html=1;overflow=block;blockSpacing=1;whiteSpace=wrap;fontSize=16.7;align=center;spacing=9;rounded=1;absoluteArcSize=1;arcSize=9;strokeWidth=NaN;lucidId=8JTeeexct-w~;" vertex="1" parent="1">
          <mxGeometry x="305" y="390" width="150" height="45" as="geometry" />
        </mxCell>
        <mxCell id="QDpqknQdW_xKd1De4-6f-11" value="" style="html=1;jettySize=18;whiteSpace=wrap;fontSize=13;strokeWidth=1.5;rounded=1;arcSize=12;edgeStyle=orthogonalEdgeStyle;startArrow=none;endArrow=block;endFill=1;exitX=0.5;exitY=1.025;exitPerimeter=0;entryX=0.5;entryY=-0.025;entryPerimeter=0;lucidId=8JTeSFXnW5LN;" edge="1" parent="1" source="QDpqknQdW_xKd1De4-6f-8" target="QDpqknQdW_xKd1De4-6f-9">
          <mxGeometry width="100" height="100" relative="1" as="geometry">
            <Array as="points" />
          </mxGeometry>
        </mxCell>
        <mxCell id="QDpqknQdW_xKd1De4-6f-12" value="" style="html=1;jettySize=18;whiteSpace=wrap;fontSize=13;strokeWidth=1.5;rounded=1;arcSize=12;edgeStyle=orthogonalEdgeStyle;startArrow=none;endArrow=block;endFill=1;exitX=0.5;exitY=1.025;exitPerimeter=0;entryX=0.5;entryY=-0.025;entryPerimeter=0;lucidId=8JTem9hmq9S~;" edge="1" parent="1" source="QDpqknQdW_xKd1De4-6f-9" target="QDpqknQdW_xKd1De4-6f-10">
          <mxGeometry width="100" height="100" relative="1" as="geometry">
            <Array as="points" />
          </mxGeometry>
        </mxCell>
        <mxCell id="QDpqknQdW_xKd1De4-6f-15" value="" style="html=1;overflow=block;blockSpacing=1;whiteSpace=wrap;fontSize=13;align=center;spacing=9;rounded=1;absoluteArcSize=1;arcSize=9;strokeWidth=NaN;lucidId=BNTe3kUbQqy7;" vertex="1" parent="1">
          <mxGeometry x="50" y="690" width="490" height="160" as="geometry" />
        </mxCell>
        <mxCell id="QDpqknQdW_xKd1De4-6f-16" value="&lt;font style=&quot;vertical-align: inherit;&quot;&gt;&lt;font style=&quot;vertical-align: inherit;&quot;&gt;Producto&lt;/font&gt;&lt;/font&gt;" style="html=1;overflow=block;blockSpacing=1;whiteSpace=wrap;fontSize=16.7;align=center;spacing=3.8;strokeOpacity=0;fillOpacity=0;rounded=1;absoluteArcSize=1;arcSize=9;strokeWidth=NaN;lucidId=BNTeTvKyI5EJ;" vertex="1" parent="1">
          <mxGeometry x="185" y="690" width="180" height="45" as="geometry" />
        </mxCell>
        <mxCell id="QDpqknQdW_xKd1De4-6f-17" value="&lt;font style=&quot;vertical-align: inherit;&quot;&gt;&lt;font style=&quot;vertical-align: inherit;&quot;&gt;Propiedad&lt;/font&gt;&lt;/font&gt;" style="html=1;overflow=block;blockSpacing=1;whiteSpace=wrap;fontSize=16.7;align=center;spacing=9;rounded=1;absoluteArcSize=1;arcSize=9;strokeWidth=NaN;lucidId=BNTec22mr~Sp;" vertex="1" parent="1">
          <mxGeometry x="357" y="760" width="98" height="51" as="geometry" />
        </mxCell>
        <mxCell id="1SvLEONA7n1nNUh2lzcI-11" style="edgeStyle=orthogonalEdgeStyle;rounded=0;orthogonalLoop=1;jettySize=auto;html=1;" edge="1" parent="1" source="QDpqknQdW_xKd1De4-6f-19" target="QDpqknQdW_xKd1De4-6f-17">
          <mxGeometry relative="1" as="geometry" />
        </mxCell>
        <mxCell id="QDpqknQdW_xKd1De4-6f-19" value="Tipo propiedad" style="html=1;overflow=block;blockSpacing=1;whiteSpace=wrap;fontSize=16.7;align=center;spacing=9;rounded=1;absoluteArcSize=1;arcSize=9;strokeWidth=NaN;lucidId=hPTep55ltFba;" vertex="1" parent="1">
          <mxGeometry x="130" y="755.5" width="130" height="60" as="geometry" />
        </mxCell>
        <mxCell id="QDpqknQdW_xKd1De4-6f-21" value="" style="html=1;overflow=block;blockSpacing=1;whiteSpace=wrap;fontSize=13;align=center;spacing=9;rounded=1;absoluteArcSize=1;arcSize=9;strokeWidth=NaN;lucidId=3LTezqUJm6WV;" vertex="1" parent="1">
          <mxGeometry x="560" y="165" width="240" height="285" as="geometry" />
        </mxCell>
        <mxCell id="QDpqknQdW_xKd1De4-6f-22" value="Usuario" style="html=1;overflow=block;blockSpacing=1;whiteSpace=wrap;fontSize=16.7;align=center;spacing=3.8;strokeOpacity=0;fillOpacity=0;rounded=1;absoluteArcSize=1;arcSize=9;strokeWidth=NaN;lucidId=3LTeeRV_QoZb;" vertex="1" parent="1">
          <mxGeometry x="590" y="175" width="180" height="45" as="geometry" />
        </mxCell>
        <mxCell id="QDpqknQdW_xKd1De4-6f-23" value="&lt;font style=&quot;vertical-align: inherit;&quot;&gt;&lt;font style=&quot;vertical-align: inherit;&quot;&gt;Tipo Genero&lt;/font&gt;&lt;/font&gt;" style="html=1;overflow=block;blockSpacing=1;whiteSpace=wrap;fontSize=16.7;align=center;spacing=9;rounded=1;absoluteArcSize=1;arcSize=9;strokeWidth=NaN;lucidId=3LTeJ60i9~Mb;" vertex="1" parent="1">
          <mxGeometry x="605" y="220" width="150" height="45" as="geometry" />
        </mxCell>
        <mxCell id="QDpqknQdW_xKd1De4-6f-24" value="Cliente" style="html=1;overflow=block;blockSpacing=1;whiteSpace=wrap;fontSize=16.7;align=center;spacing=9;rounded=1;absoluteArcSize=1;arcSize=9;strokeWidth=NaN;lucidId=3LTeGPWu500-;" vertex="1" parent="1">
          <mxGeometry x="605" y="295" width="150" height="45" as="geometry" />
        </mxCell>
        <mxCell id="QDpqknQdW_xKd1De4-6f-25" value="Tipo Documento" style="html=1;overflow=block;blockSpacing=1;whiteSpace=wrap;fontSize=16.7;align=center;spacing=9;rounded=1;absoluteArcSize=1;arcSize=9;strokeWidth=NaN;lucidId=3LTerJBN76xA;" vertex="1" parent="1">
          <mxGeometry x="605" y="370" width="150" height="45" as="geometry" />
        </mxCell>
        <mxCell id="QDpqknQdW_xKd1De4-6f-26" value="" style="html=1;jettySize=18;whiteSpace=wrap;fontSize=13;strokeWidth=1.5;rounded=1;arcSize=12;edgeStyle=orthogonalEdgeStyle;startArrow=none;endArrow=block;endFill=1;exitX=0.5;exitY=1.025;exitPerimeter=0;entryX=0.5;entryY=-0.025;entryPerimeter=0;lucidId=3LTehZraS098;" edge="1" parent="1" source="QDpqknQdW_xKd1De4-6f-23" target="QDpqknQdW_xKd1De4-6f-24">
          <mxGeometry width="100" height="100" relative="1" as="geometry">
            <Array as="points" />
          </mxGeometry>
        </mxCell>
        <mxCell id="QDpqknQdW_xKd1De4-6f-27" value="" style="html=1;jettySize=18;whiteSpace=wrap;fontSize=13;strokeWidth=1.5;rounded=1;arcSize=12;edgeStyle=orthogonalEdgeStyle;startArrow=none;endArrow=block;endFill=1;exitX=0.5;exitY=-0.025;exitPerimeter=0;entryX=0.5;entryY=1.025;entryPerimeter=0;lucidId=hNTex75AODjK;" edge="1" parent="1" source="QDpqknQdW_xKd1De4-6f-25" target="QDpqknQdW_xKd1De4-6f-24">
          <mxGeometry width="100" height="100" relative="1" as="geometry">
            <Array as="points" />
          </mxGeometry>
        </mxCell>
        <mxCell id="QDpqknQdW_xKd1De4-6f-28" value="" style="html=1;overflow=block;blockSpacing=1;whiteSpace=wrap;fontSize=13;align=center;spacing=9;rounded=1;absoluteArcSize=1;arcSize=9;strokeWidth=NaN;lucidId=o0TeilN9JcS4;" vertex="1" parent="1">
          <mxGeometry x="560" y="490" width="240" height="285" as="geometry" />
        </mxCell>
        <mxCell id="QDpqknQdW_xKd1De4-6f-29" value="Transaccion" style="html=1;overflow=block;blockSpacing=1;whiteSpace=wrap;fontSize=16.7;align=center;spacing=3.8;strokeOpacity=0;fillOpacity=0;rounded=1;absoluteArcSize=1;arcSize=9;strokeWidth=NaN;lucidId=o0TestyBMe6i;" vertex="1" parent="1">
          <mxGeometry x="590" y="505" width="180" height="45" as="geometry" />
        </mxCell>
        <mxCell id="QDpqknQdW_xKd1De4-6f-30" value="&lt;font style=&quot;vertical-align: inherit;&quot;&gt;&lt;font style=&quot;vertical-align: inherit;&quot;&gt;Venta&lt;/font&gt;&lt;/font&gt;" style="html=1;overflow=block;blockSpacing=1;whiteSpace=wrap;fontSize=16.7;align=center;spacing=9;rounded=1;absoluteArcSize=1;arcSize=9;strokeWidth=NaN;lucidId=o0Te5X3v1LEY;" vertex="1" parent="1">
          <mxGeometry x="605" y="550" width="150" height="45" as="geometry" />
        </mxCell>
        <mxCell id="QDpqknQdW_xKd1De4-6f-31" value="&lt;font style=&quot;vertical-align: inherit;&quot;&gt;&lt;font style=&quot;vertical-align: inherit;&quot;&gt;Detalle de la venta&lt;/font&gt;&lt;/font&gt;" style="html=1;overflow=block;blockSpacing=1;whiteSpace=wrap;fontSize=16.7;align=center;spacing=9;rounded=1;absoluteArcSize=1;arcSize=9;strokeWidth=NaN;lucidId=o0TekN469XL-;" vertex="1" parent="1">
          <mxGeometry x="605" y="620" width="150" height="55" as="geometry" />
        </mxCell>
        <mxCell id="QDpqknQdW_xKd1De4-6f-32" value="&lt;font style=&quot;vertical-align: inherit;&quot;&gt;&lt;font style=&quot;vertical-align: inherit;&quot;&gt;Estado venta&lt;/font&gt;&lt;/font&gt;" style="html=1;overflow=block;blockSpacing=1;whiteSpace=wrap;fontSize=16.7;align=center;spacing=9;rounded=1;absoluteArcSize=1;arcSize=9;strokeWidth=NaN;lucidId=o0Tet7YkC-ZH;" vertex="1" parent="1">
          <mxGeometry x="605" y="700" width="150" height="45" as="geometry" />
        </mxCell>
        <mxCell id="QDpqknQdW_xKd1De4-6f-33" value="" style="html=1;jettySize=18;whiteSpace=wrap;fontSize=13;strokeWidth=1.5;rounded=1;arcSize=12;edgeStyle=orthogonalEdgeStyle;startArrow=none;endArrow=block;endFill=1;exitX=0.5;exitY=1.025;exitPerimeter=0;entryX=0.5;entryY=-0.025;entryPerimeter=0;lucidId=o0TeFgrrd0id;" edge="1" parent="1" source="QDpqknQdW_xKd1De4-6f-30" target="QDpqknQdW_xKd1De4-6f-31">
          <mxGeometry width="100" height="100" relative="1" as="geometry">
            <Array as="points" />
          </mxGeometry>
        </mxCell>
        <mxCell id="QDpqknQdW_xKd1De4-6f-34" value="" style="html=1;jettySize=18;whiteSpace=wrap;fontSize=13;strokeWidth=1.5;rounded=1;arcSize=12;edgeStyle=orthogonalEdgeStyle;startArrow=none;endArrow=block;endFill=1;exitX=0.5;exitY=-0.025;exitPerimeter=0;entryX=0.5;entryY=1.025;entryPerimeter=0;lucidId=o0Tel0rnd6ay;" edge="1" parent="1" source="QDpqknQdW_xKd1De4-6f-32" target="QDpqknQdW_xKd1De4-6f-31">
          <mxGeometry width="100" height="100" relative="1" as="geometry">
            <Array as="points" />
          </mxGeometry>
        </mxCell>
        <mxCell id="QDpqknQdW_xKd1De4-6f-39" value="Geografia" style="html=1;overflow=block;blockSpacing=1;whiteSpace=wrap;fontSize=16.7;align=center;spacing=3.8;strokeOpacity=0;fillOpacity=0;rounded=1;absoluteArcSize=1;arcSize=9;strokeWidth=NaN;lucidId=oITeGIjvXMUv;" vertex="1" parent="1">
          <mxGeometry x="30" y="205" width="180" height="45" as="geometry" />
        </mxCell>
        <mxCell id="JbdeAxwpth3P7N7uTVow-1" value="&lt;font style=&quot;font-size: 21px;&quot;&gt;OBJETOS RELACIONALES&amp;nbsp;&amp;nbsp;- URBANI&lt;/font&gt;" style="text;html=1;align=center;verticalAlign=middle;whiteSpace=wrap;rounded=0;" vertex="1" parent="1">
          <mxGeometry x="150" y="80" width="480" height="30" as="geometry" />
        </mxCell>
        <mxCell id="1SvLEONA7n1nNUh2lzcI-3" style="edgeStyle=orthogonalEdgeStyle;rounded=0;orthogonalLoop=1;jettySize=auto;html=1;entryX=0;entryY=0.5;entryDx=0;entryDy=0;" edge="1" parent="1" source="QDpqknQdW_xKd1De4-6f-3" target="QDpqknQdW_xKd1De4-6f-9">
          <mxGeometry relative="1" as="geometry" />
        </mxCell>
        <mxCell id="1SvLEONA7n1nNUh2lzcI-5" style="edgeStyle=orthogonalEdgeStyle;rounded=0;orthogonalLoop=1;jettySize=auto;html=1;entryX=0;entryY=0.5;entryDx=0;entryDy=0;" edge="1" parent="1" source="QDpqknQdW_xKd1De4-6f-10" target="QDpqknQdW_xKd1De4-6f-30">
          <mxGeometry relative="1" as="geometry" />
        </mxCell>
        <mxCell id="1SvLEONA7n1nNUh2lzcI-7" style="edgeStyle=orthogonalEdgeStyle;rounded=0;orthogonalLoop=1;jettySize=auto;html=1;entryX=0;entryY=0.25;entryDx=0;entryDy=0;" edge="1" parent="1" source="QDpqknQdW_xKd1De4-6f-17" target="QDpqknQdW_xKd1De4-6f-31">
          <mxGeometry relative="1" as="geometry">
            <Array as="points">
              <mxPoint x="410" y="634" />
            </Array>
          </mxGeometry>
        </mxCell>
        <mxCell id="1SvLEONA7n1nNUh2lzcI-9" style="edgeStyle=orthogonalEdgeStyle;rounded=0;orthogonalLoop=1;jettySize=auto;html=1;entryX=1;entryY=0.5;entryDx=0;entryDy=0;" edge="1" parent="1" source="QDpqknQdW_xKd1De4-6f-24" target="QDpqknQdW_xKd1De4-6f-30">
          <mxGeometry relative="1" as="geometry">
            <Array as="points">
              <mxPoint x="810" y="318" />
              <mxPoint x="810" y="573" />
            </Array>
          </mxGeometry>
        </mxCell>
      </root>
    </mxGraphModel>
  </diagram>
</mxfile>
